<svg width="48" height="48" viewBox="0 0 48 48" fill="none" xmlns="http://www.w3.org/2000/svg">
<g clip-path="url(#clip0_4066_448)">
<path d="M11.4231 25.8897L12.693 16.3481L1.67773 8.70122L11.7423 12.1104L14.1192 8.46352L22.7983 3.07812L41.929 13.618L42.9205 29.6995L34.3976 41.5433L27.6608 42.5756L31.1446 36.1987V30.0594L28.6115 25.2649L26.0377 23.5603L22.0784 27.6418V31.961L18.9884 34.854L15.0631 35.3294L13.3246 36.3141L10.4723 35.4041L9.28385 31.1257L11.4231 28.1172V25.8897Z" fill="white"/>
<path d="M29.0114 8.6197C26.913 8.18507 24.6176 8.30052 24.6176 8.30052C24.6176 8.30052 23.8637 11.7844 19.1914 12.7012C19.2254 12.7012 25.3646 14.7997 29.0114 8.6197Z" fill="#94A6C3"/>
<path d="M30.9135 40.2327C33.4467 38.2497 35.3482 35.5197 36.2242 32.4297C36.265 32.3142 36.6181 32.1105 36.8558 31.9543C37.2497 31.7166 37.6504 31.5197 37.7251 31.2005C37.8813 30.2905 37.9628 29.3397 37.9628 28.3889C37.9628 28.0358 37.6028 27.6759 37.2497 27.3227C36.9713 27.085 36.6928 26.8066 36.6928 26.6097C36.2989 23.0035 34.6351 19.6351 31.9798 17.1835L31.7013 17.4619C34.2752 19.8796 35.939 23.1665 36.2989 26.6504C36.3397 26.9696 36.6521 27.282 36.9713 27.6012C37.2497 27.8389 37.5689 28.1988 37.5689 28.355C37.5689 29.265 37.4874 30.175 37.3312 31.085C37.2905 31.2412 36.9373 31.4042 36.6589 31.5604C36.265 31.7574 35.9051 31.9543 35.8304 32.2735C34.8796 35.6419 32.6996 38.5757 29.8066 40.4772C30.3227 39.3703 31.9458 35.7642 32.8151 33.9373L32.6589 28.0765L27.6266 23.2073L24.7743 23.6012L21.6436 28.6742C21.6436 28.6742 23.1105 30.535 21.046 32.7149C19.029 34.8541 17.4399 35.3295 17.4399 35.3295L15.973 34.535C16.4076 33.9781 17.2837 33.1496 17.956 32.5927C19.1037 31.6419 20.2514 31.5604 20.2514 30.5349C20.2989 28.3889 17.9967 28.9798 17.9967 28.9798L17.1614 29.7743L16.8083 32.7081L15.0697 34.8881L14.8728 34.8473L12.0205 34.2158C12.0205 34.2158 13.7658 33.3057 14.0443 32.2735C14.3227 31.282 13.4874 27.9951 13.4467 27.7981C13.4874 27.8389 14.282 28.5112 14.6351 29.6181C15.2667 27.8728 16.102 26.209 16.3397 26.0528C16.5774 25.8966 19.7828 24.192 19.7828 24.192L18.7166 27.0035L19.5112 26.5689L21.4127 21.8966C21.4127 21.8966 23.2735 20.9866 24.6589 20.9866C27.1512 20.9458 30.8388 17.8966 29.175 12.4297C29.6504 12.6266 37.8881 16.7489 39.3142 24.8304C40.3804 31.0443 36.8558 36.8643 30.9135 40.2327Z" fill="#94A6C3"/>
<path d="M21.4874 9.48884C22.3974 8.41584 22.0443 6.8335 22.0443 6.8335L19.3889 10.7588C19.3482 10.7588 20.3329 10.7995 21.4874 9.48884Z" fill="#1B314F"/>
<path d="M12.5702 30.9217L12.8894 29.3394C12.8894 29.3394 11.5787 31.6348 11.4632 31.954C11.341 32.3139 11.5447 32.9455 12.0541 32.9047C12.5702 32.864 13.2018 32.1102 13.2018 31.5601C13.2018 30.847 12.5702 30.9217 12.5702 30.9217Z" fill="#1B314F"/>
<path d="M36.1017 5.72685C36.1017 5.72685 38.0847 5.80835 40.1425 6.04604C35.5041 2.39918 31.1102 1.33297 27.5448 1.33297C22.6348 1.33297 19.3072 3.35674 19.1034 3.47219L20.6518 1.01378C20.6518 1.01378 14.4718 0.416158 12.2919 6.95606C11.735 5.57066 11.2257 3.54689 11.2257 3.54689C11.2257 3.54689 8.01344 6.36522 9.52108 11.0375C5.83347 9.6929 0.570316 7.82533 0.366581 7.79137C0.0881429 7.75062 0.00664886 7.87286 0.00664886 7.87286C0.00664886 7.87286 -0.0748452 7.98831 0.162846 8.19205C0.604272 8.5384 8.92346 14.6844 10.7503 15.8729C10.3564 17.299 10.3564 17.9713 10.7503 18.6437C11.3072 19.5537 11.3411 20.0291 11.2664 20.7014C11.1849 21.3737 10.4718 27.2005 10.3156 27.9136C10.1594 28.6267 8.49561 31.1598 8.57032 31.9136C8.65181 32.6674 9.67728 35.8729 10.5941 36.2328C11.2664 36.4705 12.9302 36.9866 14.0372 36.9866C14.4311 36.9866 14.791 36.9051 14.9472 36.7489C15.6196 36.1581 15.8165 36.0359 16.2919 36.0359C16.3326 36.0359 16.3734 36.0359 16.4073 36.0359C16.6043 36.0359 16.842 36.0766 17.1204 36.0766C17.752 36.0766 18.5873 35.9544 19.1781 35.4043C20.0474 34.535 21.555 33.3465 22.0304 32.7897C22.628 32.0359 22.9404 31.0104 22.7842 29.9781C22.662 29.0274 23.1781 28.1921 23.7757 27.3635C24.5296 26.372 25.915 24.5927 25.915 24.5927C28.6518 26.6437 30.3564 29.7744 30.3564 33.2583C30.3564 39.4382 24.971 44.4297 18.3156 44.4297C17.2834 44.4297 16.2987 44.3143 15.3072 44.0766C18.3564 45.1428 20.9303 45.5027 23.0355 45.5027C27.5109 45.5027 29.8878 43.8797 29.8878 43.8797C29.8878 43.8797 29.0593 44.9527 27.7078 46.1751C27.7486 46.1751 27.7486 46.1751 27.7486 46.1751C35.1578 45.1428 38.7639 39.0443 38.7639 39.0443C38.7639 39.0443 38.4854 41.0274 38.1323 42.372C47.9863 34.9628 46.3224 25.6929 46.2817 25.3805C46.3632 25.496 47.3547 26.6844 47.864 27.3228C49.4532 10.9968 36.1017 5.72685 36.1017 5.72685ZM20.9303 31.7982C20.7741 31.9951 20.1017 32.5927 19.6263 33.0274C19.151 33.462 18.6348 33.8966 18.2409 34.2973C18.0847 34.4535 17.7656 34.535 17.2902 34.535C17.134 34.535 16.971 34.535 16.8555 34.535C16.774 34.535 16.6993 34.535 16.6179 34.535C16.5364 34.535 16.4956 34.535 16.4617 34.535C16.3394 34.535 16.224 34.535 16.1017 34.535C16.6993 33.7404 18.4379 31.9204 19.0355 31.5265C19.7486 31.0511 20.1085 30.5758 19.6671 29.7472C19.2325 28.9119 18.0847 29.1157 18.0847 29.1157C18.0847 29.1157 18.7571 28.8372 19.3547 28.8372C18.6009 28.6403 17.6501 28.8372 17.2155 29.2718C16.7401 29.7065 16.8216 31.2549 16.6246 32.2396C16.4277 33.2718 15.7554 33.788 14.7231 34.7387C14.1662 35.2549 13.7724 35.4111 13.4532 35.4111C12.7808 35.2956 11.9863 35.0919 11.4294 34.8949C11.0355 34.3788 10.4379 32.6742 10.2817 31.9611C10.3971 31.5673 10.8725 30.7319 11.1102 30.2566C11.5856 29.3465 11.864 28.8304 11.9455 28.355C12.1017 27.6827 12.6179 23.5197 12.8148 21.7812C13.3309 22.4535 14.044 23.5673 13.881 24.2803C15.0287 22.6572 14.2002 21.0681 13.7995 20.4365C13.4464 19.805 12.971 18.535 13.3649 17.1904C13.7588 15.8457 15.1849 12.1173 15.1849 12.1173C15.1849 12.1173 15.6603 12.9527 16.3326 12.7897C17.0049 12.6335 22.4311 4.47049 22.4311 4.47049C22.4311 4.47049 23.898 7.67592 22.3496 10.0189C20.7673 12.355 19.2189 12.7897 19.2189 12.7897C19.2189 12.7897 21.3988 13.1836 23.4158 11.7167C24.2443 13.6589 25.0389 15.6759 25.0797 15.9544C24.9574 16.2328 23.3751 20.0359 23.2189 20.2735C23.1374 20.355 22.5873 20.5112 22.1866 20.5927C21.5143 20.7897 21.1204 20.9119 20.9574 21.0274C20.679 21.2651 19.409 24.7489 18.8182 26.4535C18.1051 26.6505 17.392 27.0511 16.8759 27.8389C17.1544 27.642 18.0236 27.5197 18.662 27.445C19.2189 27.4043 20.9167 28.3143 21.3581 30.0189C21.3581 30.0596 21.3581 30.0596 21.3581 30.1004C21.4464 30.7252 21.2494 31.3228 20.9303 31.7982ZM17.2087 32.2735C17.5686 31.7574 17.5279 30.8881 17.5686 30.6097C17.6094 30.3313 17.6841 29.8151 18.0033 29.7404C18.3224 29.6589 19.0763 29.7812 19.0763 30.3313C19.0763 30.8474 18.5194 30.9628 18.1255 31.3228C17.8403 31.5944 17.2834 32.1921 17.2087 32.2735ZM33.0117 24.7014C33.4056 22.6844 33.4464 20.9391 33.3309 19.5129C34.8725 21.5707 35.8233 24.0698 36.1017 26.6437C36.1425 26.9628 36.4549 27.2752 36.7741 27.5944C37.0525 27.8321 37.3717 28.1513 37.3717 28.3482C37.3717 29.2583 37.2902 30.1683 37.134 31.0851C37.0932 31.2005 36.7401 31.4043 36.4617 31.5605C36.0678 31.7574 35.7078 31.9544 35.6331 32.2735C34.7639 35.3228 32.8963 38.0189 30.4039 39.9204C34.0847 36.0766 35.864 29.7336 33.0117 24.7014ZM30.5194 40.2735C33.0932 38.2905 35.0763 35.5197 35.9455 32.389C35.9863 32.2735 36.3394 32.0698 36.5771 31.9136C36.971 31.7167 37.3717 31.479 37.4464 31.1598C37.6026 30.2498 37.6841 29.299 37.6841 28.3482C37.6841 27.9951 37.3241 27.6352 36.971 27.282C36.7741 27.0443 36.4549 26.7659 36.4549 26.569C36.1357 23.6759 34.988 20.9459 33.2087 18.6844C32.4141 13.9306 29.2494 12.4637 29.1679 12.4229C29.2494 12.5452 31.3072 15.5129 29.881 18.9968C28.4141 22.5214 24.6518 21.9713 24.3326 22.0053C24.0134 22.0053 22.791 23.5876 21.2426 26.5214C21.0457 26.4399 20.2104 26.243 19.2596 26.406C19.9727 24.423 21.0457 21.6114 21.2426 21.3737C21.3241 21.2922 21.915 21.136 22.3156 21.0206C23.0695 20.8236 23.4226 20.7014 23.5449 20.5452C23.6263 20.4229 24.0202 19.5129 24.4141 18.5622C24.7741 18.5622 25.6841 18.4807 25.7588 18.4399C25.8403 18.3584 26.5941 16.4229 26.5941 16.1853C26.5941 15.9883 25.0457 12.1445 24.4549 10.6776C24.7333 10.3584 25.0117 9.96455 25.2834 9.52991C33.4056 10.406 39.7486 17.299 39.7486 25.6522C39.7486 32.0698 35.9863 37.6589 30.5194 40.2735Z" fill="#1B314F"/>
<path d="M19.9793 18.8813C20.7331 18.0121 20.3392 16.389 18.947 16.1105C19.3069 15.282 19.8163 13.6182 19.8163 13.6182C19.8163 13.6182 15.7755 19.9543 15.4224 20.0766C15.0625 20.1988 14.7093 18.8066 14.7093 18.8066C13.9555 21.6997 15.9793 22.0935 16.217 21.1835C17.3239 20.8983 19.2254 19.7098 19.9793 18.8813Z" fill="#1B314F"/>
<path d="M16.5293 20.4226L18.587 16.8979C18.587 16.8979 19.7755 17.4956 19.1779 18.4463C18.4308 19.5533 16.5293 20.4226 16.5293 20.4226Z" fill="#FFD923"/>
<path d="M42.003 36.7489C41.4054 37.5435 40.7331 38.372 39.9453 39.1666C45.0523 29.3398 40.183 20.3483 39.9861 19.9951C40.346 20.355 40.6991 20.7489 41.0183 21.1021C44.9368 25.4552 45.4122 31.9951 42.003 36.7489Z" fill="#D82122"/>
<path d="M46.7569 24.1105C44.9708 19.316 42.4377 15.2345 36.8554 11.5537C31.47 7.98829 25.6839 8.26673 25.3647 8.30748C25.324 8.30748 25.2832 8.30748 25.2832 8.30748C25.4801 8.22598 25.6771 8.18524 25.874 8.15128C27.1032 7.75739 28.6856 7.43821 30.2747 7.24126C34.4784 6.63685 38.7161 8.06299 41.6092 11.119C41.6499 11.1598 41.6499 11.1598 41.6907 11.2005C44.9776 14.6844 46.6822 19.0375 46.7569 24.1105Z" fill="#D82122"/>
<path d="M35.5853 4.49745C29.6838 3.39049 25.8807 3.94057 23.1439 4.97283C23.0624 4.65364 22.784 4.02206 22.5463 3.50594C21.7245 4.49745 20.8485 5.6859 20.2984 6.43972C18.7908 7.47198 18.1592 8.46349 18.1592 8.46349C19.0284 5.48896 21.5683 3.27504 24.6583 2.71816C25.5276 2.56196 26.4784 2.48047 27.5106 2.48047C30.2407 2.52122 32.9707 3.19354 35.5853 4.49745Z" fill="#D82122"/>
<path d="M13.7594 12.1035C9.12782 11.9473 10.6694 6.55507 10.7509 6.24268C10.7509 6.28342 11.0633 10.4804 13.7594 12.1035Z" fill="#D82122"/>
<path d="M18.3154 2.39893C14.75 4.53814 15.4631 9.64511 15.4631 9.64511C12.0539 4.46344 18.0369 2.52117 18.3154 2.39893Z" fill="#D82122"/>
<path d="M12.4555 13.5297C12.6932 13.7267 12.9309 14.0866 12.6524 14.6027C12.4962 14.8812 12.2585 14.8404 11.8986 14.6842C11.4232 14.4465 8.57092 12.7827 5.99707 11.0781C8.93086 12.1104 11.8986 13.2173 12.374 13.455C12.374 13.455 12.4147 13.4958 12.4555 13.5297Z" fill="white"/>
</g>
<defs>
<clipPath id="clip0_4066_448">
<rect width="48" height="45.1749" fill="white" transform="translate(0 1)"/>
</clipPath>
</defs>
</svg>
