<svg width="48" height="48" viewBox="0 0 48 48" fill="none" xmlns="http://www.w3.org/2000/svg">
<g clip-path="url(#clip0_4069_535)">
<g clip-path="url(#clip1_4069_535)">
<mask id="mask0_4069_535" style="mask-type:luminance" maskUnits="userSpaceOnUse" x="0" y="0" width="48" height="48">
<path d="M48 0H0V48H48V0Z" fill="white"/>
</mask>
<g mask="url(#mask0_4069_535)">
<path d="M23.9997 47.2802C36.8569 47.2802 47.2797 36.8574 47.2797 24.0002C47.2797 11.143 36.8569 0.720215 23.9997 0.720215C11.1425 0.720215 0.719727 11.143 0.719727 24.0002C0.719727 36.8574 11.1425 47.2802 23.9997 47.2802Z" fill="url(#paint0_linear_4069_535)"/>
<path d="M34.1877 33.2763L26.3157 14.2443C25.8717 13.2603 25.2117 12.7803 24.3417 12.7803H23.6457C22.7757 12.7803 22.1157 13.2603 21.6717 14.2443L18.2457 22.5363H15.6537C14.8797 22.5423 14.2497 23.1663 14.2437 23.9463V23.9643C14.2497 24.7383 14.8797 25.3683 15.6537 25.3743H17.0457L13.7757 33.2763C13.7157 33.4503 13.6797 33.6303 13.6797 33.8163C13.6797 34.2603 13.8177 34.6083 14.0637 34.8783C14.3097 35.1483 14.6637 35.2803 15.1077 35.2803C15.4017 35.2743 15.6837 35.1843 15.9177 35.0103C16.1697 34.8363 16.3437 34.5843 16.4817 34.2963L20.0817 25.3683H22.5777C23.3517 25.3623 23.9817 24.7383 23.9877 23.9583V23.9223C23.9817 23.1483 23.3517 22.5183 22.5777 22.5123H21.2457L23.9937 15.6663L31.4817 34.2903C31.6197 34.5783 31.7937 34.8303 32.0457 35.0043C32.2797 35.1783 32.5677 35.2683 32.8557 35.2743C33.2997 35.2743 33.6477 35.1423 33.8997 34.8723C34.1517 34.6023 34.2837 34.2543 34.2837 33.8103C34.2897 33.6303 34.2597 33.4443 34.1877 33.2763Z" fill="white"/>
</g>
</g>
</g>
<defs>
<linearGradient id="paint0_linear_4069_535" x1="41.357" y1="9.3954" x2="6.71632" y2="38.542" gradientUnits="userSpaceOnUse">
<stop stop-color="#B6509E"/>
<stop offset="1" stop-color="#2EBAC6"/>
</linearGradient>
<clipPath id="clip0_4069_535">
<rect width="48" height="48" fill="white"/>
</clipPath>
<clipPath id="clip1_4069_535">
<rect width="48" height="48" fill="white"/>
</clipPath>
</defs>
</svg>
