<svg width="48" height="48" viewBox="0 0 48 48" fill="none" xmlns="http://www.w3.org/2000/svg">
<g clip-path="url(#clip0_4068_470)">
<path d="M19.3469 10.9227C18.8268 10.8484 18.802 10.8237 19.0497 10.7989C19.5203 10.7246 20.6101 10.8237 21.3779 10.997C23.1612 11.4181 24.7711 12.5079 26.48 14.415L26.9259 14.9351L27.5698 14.836C30.3191 14.3902 33.1426 14.737 35.4955 15.8268C36.1395 16.124 37.155 16.7184 37.2788 16.867C37.3283 16.9165 37.4027 17.2385 37.4522 17.5605C37.6256 18.7246 37.5513 19.5915 37.1797 20.2602C36.9816 20.6317 36.9816 20.7308 37.1054 21.0528C37.2045 21.3004 37.5017 21.4738 37.7742 21.4738C38.3686 21.4738 38.9878 20.5326 39.285 19.2199L39.4088 18.6998L39.6318 18.9475C40.8949 20.3593 41.8856 22.3159 42.0342 23.7029L42.0838 24.0744L41.8609 23.7524C41.4893 23.1828 41.1426 22.8113 40.672 22.4893C39.8299 21.9196 38.9383 21.7463 36.5853 21.6224C34.4553 21.4986 33.2417 21.3252 32.0528 20.9289C30.0218 20.2602 28.9816 19.3933 26.5791 16.1983C25.5141 14.7865 24.8454 14.0187 24.1766 13.3747C22.7153 11.963 21.254 11.2199 19.3469 10.9227Z" fill="#FF007A"/>
<path d="M37.7992 14.0682C37.8487 13.127 37.9726 12.5078 38.245 11.9381C38.3441 11.7152 38.4432 11.5171 38.4679 11.5171C38.4927 11.5171 38.4432 11.6905 38.3689 11.8886C38.1707 12.4335 38.1459 13.2013 38.2698 14.0682C38.4432 15.1827 38.5175 15.3313 39.7063 16.545C40.2512 17.1146 40.8952 17.8329 41.1429 18.1301L41.5639 18.675L41.1429 18.2787C40.6227 17.7833 39.4339 16.8422 39.1614 16.7183C38.9881 16.6193 38.9633 16.6193 38.8394 16.7431C38.7404 16.8422 38.7156 16.9908 38.7156 17.709C38.6908 18.8236 38.5422 19.5171 38.1707 20.2354C37.9726 20.6069 37.9478 20.5326 38.1212 20.1115C38.245 19.7895 38.2698 19.6409 38.2698 18.5759C38.2698 16.4211 38.0221 15.901 36.5113 15.0341C36.1398 14.8112 35.4958 14.4892 35.1243 14.3159C34.728 14.1425 34.4308 13.9939 34.4555 13.9939C34.5051 13.9443 35.9664 14.3654 36.536 14.6131C37.4029 14.9598 37.5515 14.9846 37.6506 14.9598C37.7249 14.8855 37.7744 14.6874 37.7992 14.0682Z" fill="#FF007A"/>
<path d="M20.3622 17.7583C19.322 16.3218 18.6533 14.0927 18.8019 12.4332L18.8514 11.9131L19.0991 11.9626C19.5449 12.0369 20.3127 12.3341 20.6842 12.557C21.6749 13.1515 22.1207 13.9688 22.5418 15.9998C22.6656 16.5942 22.839 17.2877 22.9133 17.5106C23.0372 17.8821 23.5077 18.749 23.904 19.2939C24.1765 19.6902 24.0031 19.8883 23.3839 19.8388C22.4427 19.7397 21.1796 18.8728 20.3622 17.7583Z" fill="#FF007A"/>
<path d="M36.5352 28.5323C31.6312 26.5509 29.8975 24.8419 29.8975 21.9441C29.8975 21.523 29.9222 21.1763 29.9222 21.1763C29.947 21.1763 30.1204 21.3249 30.3433 21.4983C31.334 22.2908 32.4485 22.6376 35.5445 23.0834C37.3526 23.3558 38.3928 23.554 39.334 23.876C42.3309 24.8667 44.1885 26.8976 44.6343 29.6469C44.7581 30.4394 44.6838 31.9503 44.4857 32.7428C44.3123 33.362 43.817 34.5013 43.6931 34.5261C43.6684 34.5261 43.6188 34.4023 43.6188 34.2041C43.5693 33.1639 43.0492 32.1732 42.1823 31.4054C41.142 30.5137 39.8046 29.845 36.5352 28.5323Z" fill="#FF007A"/>
<path d="M33.0677 29.3498C33.0181 28.9782 32.8943 28.5076 32.82 28.3095L32.6961 27.938L32.9191 28.2104C33.241 28.582 33.4887 29.0278 33.7116 29.647C33.885 30.1176 33.885 30.2662 33.885 31.034C33.885 31.777 33.8602 31.9504 33.7116 32.3714C33.4639 33.0402 33.1667 33.5107 32.6714 34.0309C31.7797 34.9473 30.6156 35.4426 28.9562 35.6655C28.659 35.6903 27.8169 35.7646 27.0738 35.8142C25.2163 35.9132 23.9779 36.1114 22.8633 36.5076C22.7147 36.5572 22.5661 36.6067 22.5413 36.582C22.4918 36.5324 23.2596 36.0866 23.8788 35.7894C24.7457 35.3683 25.6373 35.1454 27.594 34.7987C28.5599 34.6501 29.5506 34.4519 29.7983 34.3528C32.2503 33.585 33.4639 31.6779 33.0677 29.3498Z" fill="#FF007A"/>
<path d="M35.3222 33.3377C34.6782 31.9259 34.5296 30.5885 34.8764 29.3253C34.9259 29.2015 34.9755 29.0776 35.025 29.0776C35.0745 29.0776 35.2231 29.1519 35.3717 29.251C35.6689 29.4492 36.2881 29.7959 37.8733 30.6628C39.8795 31.7526 41.0188 32.5947 41.8114 33.5606C42.5049 34.4027 42.9259 35.3687 43.1241 36.5575C43.2479 37.2262 43.1736 38.8362 43.0002 39.5049C42.4553 41.6101 41.2169 43.2944 39.4089 44.2603C39.1364 44.4089 38.9135 44.508 38.8888 44.508C38.864 44.508 38.9631 44.2603 39.1117 43.9631C39.7061 42.6999 39.7804 41.4863 39.3346 40.1241C39.0621 39.282 38.4925 38.2665 37.3532 36.5575C35.9909 34.5761 35.6689 34.056 35.3222 33.3377Z" fill="#FF007A"/>
<path d="M16.8697 40.9165C18.7026 39.3809 20.9564 38.2911 23.0369 37.9443C23.9286 37.7957 25.4146 37.8452 26.232 38.0682C27.5447 38.4149 28.7335 39.1579 29.3527 40.0744C29.9471 40.966 30.2196 41.7338 30.492 43.4428C30.5911 44.1115 30.7149 44.805 30.7397 44.9536C30.9378 45.8453 31.3341 46.5387 31.8295 46.9103C32.5973 47.4799 33.9347 47.5047 35.2474 47.0093C35.4704 46.935 35.6685 46.8607 35.6685 46.8855C35.718 46.935 35.0493 47.3809 34.6035 47.6038C33.9843 47.9257 33.4889 48.0248 32.8202 48.0248C31.6313 48.0248 30.6159 47.4056 29.7985 46.1672C29.6251 45.9196 29.2784 45.2013 28.9812 44.5326C28.1143 42.5264 27.6685 41.9319 26.653 41.2632C25.7614 40.6935 24.6221 40.5697 23.7552 40.9908C22.6159 41.5357 22.3186 42.997 23.1112 43.8886C23.4332 44.2601 24.0276 44.5573 24.523 44.6316C25.4394 44.7555 26.232 44.0372 26.232 43.1208C26.232 42.5264 26.0091 42.1796 25.4146 41.9072C24.6221 41.5604 23.7552 41.9567 23.7799 42.7245C23.7799 43.0465 23.9286 43.2446 24.2505 43.3932C24.4487 43.4923 24.4487 43.4923 24.3001 43.4675C23.5818 43.3189 23.4084 42.4273 23.9781 41.8576C24.6716 41.1641 26.1329 41.4614 26.6282 42.4273C26.8264 42.8236 26.8512 43.6161 26.6778 44.1115C26.2567 45.2013 25.0679 45.7709 23.8543 45.449C23.0369 45.2261 22.6902 45.0031 21.6995 43.9877C19.9657 42.2044 19.297 41.8576 16.8202 41.4861L16.3496 41.4118L16.8697 40.9165Z" fill="#FF007A"/>
<path fill-rule="evenodd" clip-rule="evenodd" d="M3.84223 1.06502C9.61313 8.0743 18.5048 18.9721 18.9506 19.5666C19.3221 20.0619 19.1735 20.5325 18.5543 20.8793C18.2076 21.0774 17.4893 21.2755 17.1425 21.2755C16.7463 21.2755 16.2757 21.0774 15.9537 20.7554C15.7308 20.5325 14.7648 19.1207 12.5853 15.7276C10.9258 13.1269 9.51406 10.9721 9.48929 10.9474C9.39022 10.8978 9.39022 10.8978 12.4119 16.2972C14.319 19.6904 14.9382 20.904 14.9382 21.0526C14.9382 21.3746 14.8391 21.548 14.4428 21.9938C13.7741 22.7368 13.4769 23.5789 13.254 25.3375C13.0063 27.2941 12.3376 28.6811 10.4305 31.0341C9.31591 32.4211 9.14254 32.6687 8.87009 33.2384C8.52334 33.9319 8.42427 34.3282 8.37474 35.2198C8.3252 36.161 8.42427 36.7554 8.69672 37.6471C8.9444 38.4396 9.21684 38.9598 9.88557 39.9752C10.4552 40.8669 10.802 41.5356 10.802 41.7833C10.802 41.9814 10.8515 41.9814 11.7432 41.7833C13.8732 41.2879 15.6317 40.4458 16.5976 39.4056C17.1921 38.7616 17.3407 38.4149 17.3407 37.5232C17.3407 36.9536 17.3159 36.8297 17.1673 36.483C16.9196 35.9381 16.449 35.4923 15.4336 34.7988C14.0961 33.8824 13.5264 33.1393 13.3778 32.1486C13.254 31.3065 13.4026 30.7368 14.1456 29.1765C14.9134 27.5666 15.1116 26.8978 15.2354 25.2632C15.3097 24.2229 15.4336 23.8019 15.7308 23.4799C16.0528 23.1331 16.3252 23.0093 17.093 22.9102C18.3562 22.7368 19.1735 22.4149 19.8175 21.7957C20.3871 21.2755 20.6348 20.7554 20.6596 19.9876L20.6843 19.418L20.3624 19.0712C19.1983 17.7337 3.07443 0 3.00013 0C2.97536 0 3.37164 0.470588 3.84223 1.06502ZM11.4459 36.2848C11.7184 35.8142 11.5698 35.2198 11.124 34.9226C10.7029 34.6502 10.0589 34.774 10.0589 35.1455C10.0589 35.2446 10.1085 35.3437 10.2571 35.3932C10.48 35.517 10.5048 35.6409 10.3314 35.9133C10.158 36.1858 10.158 36.4334 10.3809 36.6068C10.7277 36.8793 11.1983 36.7306 11.4459 36.2848Z" fill="#FF007A"/>
<path fill-rule="evenodd" clip-rule="evenodd" d="M21.4768 23.2568C20.8824 23.4302 20.3127 24.0742 20.1394 24.7181C20.0403 25.1144 20.0898 25.8327 20.2632 26.0556C20.5356 26.4023 20.7833 26.5014 21.4768 26.5014C22.8391 26.5014 24.0031 25.907 24.127 25.1887C24.2508 24.5943 23.7307 23.777 23.0124 23.4054C22.6409 23.2073 21.8731 23.133 21.4768 23.2568ZM23.062 24.4952C23.2601 24.198 23.1858 23.876 22.8143 23.6531C22.1456 23.2321 21.1301 23.5788 21.1301 24.2228C21.1301 24.5448 21.6502 24.8915 22.1456 24.8915C22.4675 24.8915 22.9134 24.6934 23.062 24.4952Z" fill="#FF007A"/>
</g>
<defs>
<clipPath id="clip0_4068_470">
<rect width="41.6842" height="48" fill="white" transform="translate(3)"/>
</clipPath>
</defs>
</svg>
