<svg width="20" height="20" viewBox="0 0 20 20" fill="none" xmlns="http://www.w3.org/2000/svg">
<path d="M9.99379 16.2444C13.5534 16.2444 16.4914 13.3064 16.4914 9.75307C16.4914 6.19978 13.5471 3.26172 9.98751 3.26172C6.43422 3.26172 3.50244 6.19978 3.50244 9.75307C3.50244 13.3064 6.4405 16.2444 9.99379 16.2444ZM9.99379 14.9512C7.11224 14.9512 4.80825 12.6346 4.80825 9.75307C4.80825 6.87151 7.11224 4.56124 9.98751 4.56124C12.8691 4.56124 15.1856 6.87151 15.1919 9.75307C15.1982 12.6346 12.8753 14.9512 9.99379 14.9512Z" fill="#86B600"/>
<path d="M12.2314 9.95558C12.2314 10.3283 12.5286 10.6255 12.9014 10.6255C13.2693 10.6255 13.5713 10.3283 13.5713 9.95558C13.5713 9.58759 13.2693 9.28564 12.9014 9.28564C12.5286 9.28564 12.2314 9.58759 12.2314 9.95558ZM9.32992 9.95558C9.32992 10.3283 9.62715 10.6255 9.99986 10.6255C10.3679 10.6255 10.6698 10.3283 10.6698 9.95558C10.6698 9.58759 10.3679 9.28564 9.99986 9.28564C9.62715 9.28564 9.32992 9.58759 9.32992 9.95558ZM6.42843 9.95558C6.42843 10.3283 6.72566 10.6255 7.09837 10.6255C7.46636 10.6255 7.76831 10.3283 7.76831 9.95558C7.76831 9.58759 7.46636 9.28564 7.09837 9.28564C6.72566 9.28564 6.42843 9.58759 6.42843 9.95558Z" fill="#86B600"/>
</svg>
