<svg width="20" height="20" viewBox="0 0 20 20" fill="none" xmlns="http://www.w3.org/2000/svg">
<path d="M8.77052 15.5357C9.19242 15.5357 9.55572 15.3365 9.80183 14.9497L15.0404 6.75791C15.1927 6.5118 15.3334 6.23053 15.3334 5.97271C15.3334 5.38674 14.8177 5 14.2669 5C13.9153 5 13.5989 5.19923 13.3528 5.58597L8.72364 13.0161L6.54384 10.2386C6.26258 9.87526 5.98131 9.74635 5.62973 9.74635C5.05548 9.74635 4.61015 10.2151 4.61015 10.7894C4.61015 11.0706 4.71562 11.3285 4.91485 11.5746L7.68062 14.9615C7.99704 15.3599 8.33691 15.5357 8.77052 15.5357Z" fill="#EC588D"/>
</svg>
