<svg width="20" height="20" viewBox="0 0 20 20" fill="none" xmlns="http://www.w3.org/2000/svg">
<path fill-rule="evenodd" clip-rule="evenodd" d="M9.96429 16.2142C13.5344 16.2142 16.4286 13.3201 16.4286 9.74993C16.4286 6.1798 13.5344 3.28564 9.96429 3.28564C6.39416 3.28564 3.5 6.1798 3.5 9.74993C3.5 13.3201 6.39416 16.2142 9.96429 16.2142Z" fill="#1CD20F"/>
<path d="M9.31564 12.7351C9.54792 12.7351 9.73626 12.6221 9.87437 12.4212L12.6806 8.03299C12.7622 7.90116 12.8375 7.75049 12.8375 7.6061C12.8375 7.29848 12.5613 7.09131 12.2663 7.09131C12.0779 7.09131 11.9084 7.19176 11.7766 7.4052L9.29681 11.3854L8.12912 9.89753C7.97845 9.70292 7.82778 9.63386 7.63944 9.63386C7.33182 9.63386 7.09326 9.8787 7.09326 10.1926C7.09326 10.3433 7.14976 10.4814 7.25021 10.6132L8.73807 12.4212C8.90758 12.641 9.08963 12.7351 9.31564 12.7351Z" fill="white"/>
</svg>
