<svg width="24" height="24" viewBox="0 0 24 24" fill="none" xmlns="http://www.w3.org/2000/svg">
<path d="M16.844 11.7037C16.8365 11.44 16.7386 11.214 16.5352 11.0106L10.6741 5.27762C10.5008 5.11189 10.2974 5.02148 10.0488 5.02148C9.54408 5.02148 9.15234 5.41323 9.15234 5.91797C9.15234 6.15904 9.25028 6.38504 9.42355 6.55831L14.697 11.7037L9.42355 16.8491C9.25028 17.0223 9.15234 17.2408 9.15234 17.4894C9.15234 17.9941 9.54408 18.3859 10.0488 18.3859C10.2899 18.3859 10.5008 18.2955 10.6741 18.1297L16.5352 12.3892C16.7461 12.1934 16.844 11.9674 16.844 11.7037Z" fill="#1C1C1E"/>
</svg>
