<svg width="16" height="17" viewBox="0 0 16 17" fill="none" xmlns="http://www.w3.org/2000/svg">
<path fill-rule="evenodd" clip-rule="evenodd" d="M7.97123 13.6534C10.8273 13.6534 13.1427 11.3381 13.1427 8.48198C13.1427 5.62587 10.8273 3.31055 7.97123 3.31055C5.11513 3.31055 2.7998 5.62587 2.7998 8.48198C2.7998 11.3381 5.11513 13.6534 7.97123 13.6534Z" fill="#1CD20F"/>
<path d="M7.45271 10.87C7.63853 10.87 7.7892 10.7796 7.89969 10.6189L10.1447 7.10833C10.21 7.00286 10.2702 6.88232 10.2702 6.76681C10.2702 6.52072 10.0492 6.35498 9.8132 6.35498C9.66253 6.35498 9.52693 6.43534 9.42146 6.6061L7.43764 9.79025L6.50349 8.59996C6.38295 8.44427 6.26242 8.38902 6.11175 8.38902C5.86565 8.38902 5.6748 8.58489 5.6748 8.83601C5.6748 8.95654 5.72001 9.06703 5.80036 9.1725L6.99065 10.6189C7.12626 10.7947 7.2719 10.87 7.45271 10.87Z" fill="white"/>
</svg>
