<svg width="20" height="20" viewBox="0 0 20 20" fill="none" xmlns="http://www.w3.org/2000/svg">
<path d="M4.19266 13.4193H5.01507C5.2034 13.4193 5.27874 13.3816 5.41685 13.2749L5.83747 12.9547C6.06975 13.187 6.41504 13.2372 6.76032 13.0866L8.83831 12.2202C8.99526 12.1574 9.07687 12.0947 9.17732 11.9942L15.2418 5.97371C15.8444 5.37103 15.8444 4.64908 15.2355 4.03384L13.8732 2.66526C13.2642 2.0563 12.5423 2.05002 11.9396 2.6527L5.87514 8.66693C5.76842 8.77366 5.71191 8.84899 5.64286 9.01222L4.76395 11.0839C4.61956 11.4167 4.65723 11.7431 4.88951 12.0005L3.98549 12.9359C3.79088 13.1431 3.88504 13.4193 4.19266 13.4193ZM12.6364 3.48139C12.7997 3.32444 12.9943 3.31816 13.145 3.47511L14.4256 4.76208C14.5826 4.91902 14.5763 5.10736 14.4068 5.27059L13.9987 5.67865L12.2221 3.89573L12.6364 3.48139ZM6.98633 9.10011L11.5441 4.57374L13.3145 6.35666L8.76297 10.883L6.98633 9.10011ZM6.63477 11.9754C6.51549 12.0193 6.43387 12.0193 6.32715 11.9126L5.93164 11.5234C5.83119 11.4229 5.83119 11.3288 5.87514 11.222L6.44015 9.90996L7.94685 11.4292L6.63477 11.9754ZM3.97921 15.648H16.0265C16.3278 15.648 16.5727 15.3906 16.5727 15.0892C16.5727 14.7879 16.3278 14.5368 16.0265 14.5368H3.97921C3.6716 14.5368 3.42676 14.7879 3.42676 15.0892C3.42676 15.3906 3.67787 15.648 3.97921 15.648Z" fill="#1E1E1E"/>
</svg>
