<svg width="60" height="59" viewBox="0 0 60 59" fill="none" xmlns="http://www.w3.org/2000/svg">
<path d="M29.9815 47.921C40.4822 47.921 49.1495 39.2538 49.1495 28.7716C49.1495 18.2893 40.4637 9.62207 29.963 9.62207C19.4808 9.62207 10.832 18.2893 10.832 28.7716C10.832 39.2538 19.4993 47.921 29.9815 47.921ZM29.9815 31.9384C28.8888 31.9384 28.2591 31.3273 28.2221 30.2161L27.9628 20.9747C27.9258 19.8265 28.7407 19.0301 29.963 19.0301C31.1482 19.0301 32.0187 19.845 31.9816 20.9932L31.6853 30.2161C31.6483 31.3458 31.0371 31.9384 29.9815 31.9384ZM29.9815 38.3463C28.7221 38.3463 27.685 37.4388 27.685 36.2165C27.685 34.9942 28.7036 34.0867 29.9815 34.0867C31.2408 34.0867 32.2594 34.9942 32.2594 36.2165C32.2594 37.4573 31.2223 38.3463 29.9815 38.3463Z" fill="#E83D26"/>
</svg>
