<svg width="24" height="24" viewBox="0 0 24 24" fill="none" xmlns="http://www.w3.org/2000/svg">
<path d="M12.0075 18.2428C18.1925 18.2428 22.3509 13.2556 22.3509 11.7113C22.3509 10.1669 18.1774 5.18726 12.0075 5.18726C5.91288 5.18726 1.64893 10.1669 1.64893 11.7113C1.64893 13.2556 5.89781 18.2428 12.0075 18.2428ZM12.0075 16.7662C7.2011 16.7662 3.39669 12.7659 3.39669 11.7113C3.39669 10.8298 7.2011 6.66382 12.0075 6.66382C16.7912 6.66382 20.6032 10.8298 20.6032 11.7113C20.6032 12.7659 16.7912 16.7662 12.0075 16.7662ZM12.0075 15.7567C14.2524 15.7567 16.0529 13.911 16.0529 11.7113C16.0529 9.45874 14.2524 7.67331 12.0075 7.67331C9.74742 7.67331 7.93938 9.45874 7.94692 11.7113C7.96198 13.911 9.74742 15.7567 12.0075 15.7567ZM11.9999 13.0145C11.2767 13.0145 10.6891 12.4269 10.6891 11.7113C10.6891 10.9956 11.2767 10.408 11.9999 10.408C12.7231 10.408 13.3108 10.9956 13.3108 11.7113C13.3108 12.4269 12.7231 13.0145 11.9999 13.0145Z" fill="#1E1E1E"/>
</svg>
