<svg width="24" height="24" viewBox="0 0 24 24" fill="none" xmlns="http://www.w3.org/2000/svg">
<path d="M17.9438 18.3784C18.1849 18.6119 18.5541 18.627 18.7951 18.3784C19.0437 18.1222 19.0287 17.7606 18.7951 17.5271L6.01835 4.75782C5.78481 4.52429 5.39307 4.51675 5.15953 4.75782C4.93352 4.98383 4.93352 5.37557 5.15953 5.60157L17.9438 18.3784ZM12.0075 5.18723C10.6891 5.18723 9.49881 5.41324 8.39139 5.78238L9.61182 7.0028C10.3727 6.79186 11.1562 6.66379 12.0075 6.66379C16.7988 6.66379 20.6032 10.8298 20.6032 11.7112C20.6032 12.3064 19.3978 13.8357 17.4768 15.041L18.6068 16.1786C20.9723 14.6267 22.3509 12.6002 22.3509 11.7112C22.3509 10.1669 18.1925 5.18723 12.0075 5.18723ZM12.0075 18.2428C13.3936 18.2428 14.6668 18.0017 15.8194 17.6024L14.599 16.382C13.7854 16.6231 12.9265 16.7662 12.0075 16.7662C7.2011 16.7662 3.39669 12.7659 3.39669 11.7112C3.39669 11.2065 4.66985 9.58679 6.71143 8.32116L5.5588 7.16854C3.10289 8.7355 1.64893 10.8147 1.64893 11.7112C1.64893 13.2556 5.89781 18.2428 12.0075 18.2428ZM15.7516 13.1501C15.9475 12.7132 16.0529 12.216 16.0529 11.7112C16.0529 9.45872 14.2524 7.67328 12.0075 7.67328C11.4877 7.67328 11.0055 7.77875 10.561 7.95955L15.7516 13.1501ZM12.0075 15.7567C12.58 15.7567 13.1224 15.6211 13.6121 15.3876L8.31606 10.0915C8.07499 10.5812 7.94692 11.1311 7.94692 11.7188C7.95445 13.911 9.74742 15.7567 12.0075 15.7567Z" fill="#1C1C1E"/>
</svg>
