<svg width="32" height="32" viewBox="0 0 32 32" fill="none" xmlns="http://www.w3.org/2000/svg">
<path d="M14.9753 26.5233H17.0144C17.8481 26.5233 18.501 26.001 18.7019 25.1974L19.1037 23.4396L19.3648 23.3391L20.9016 24.2934C21.6048 24.7354 22.4385 24.6148 23.0311 24.0222L24.4374 22.6159C25.04 22.0133 25.1405 21.1896 24.6985 20.4965L23.7443 18.9597L23.8447 18.7186L25.6025 18.3068C26.3961 18.1059 26.9184 17.453 26.9184 16.6193V14.6405C26.9184 13.8068 26.4061 13.1539 25.6025 12.953L23.8548 12.5311L23.7543 12.2699L24.7086 10.7432C25.1505 10.0501 25.0501 9.22642 24.4474 8.6137L23.0412 7.20745C22.4586 6.61482 21.6249 6.50432 20.9217 6.93624L19.3849 7.88044L19.1037 7.77999L18.7019 6.01214C18.501 5.20857 17.8481 4.69629 17.0144 4.69629H14.9753C14.1316 4.69629 13.4787 5.20857 13.2878 6.01214L12.886 7.77999L12.6048 7.88044L11.0679 6.93624C10.3548 6.50432 9.53111 6.61482 8.94852 7.20745L7.53223 8.6137C6.93959 9.22642 6.8291 10.0501 7.27107 10.7432L8.22531 12.2699L8.12486 12.5311L6.38714 12.953C5.58357 13.1539 5.07129 13.8068 5.07129 14.6405V16.6193C5.07129 17.453 5.59361 18.1059 6.38714 18.3068L8.14495 18.7186L8.23535 18.9597L7.28111 20.4965C6.83915 21.1896 6.94964 22.0133 7.54227 22.6159L8.95857 24.0222C9.54116 24.6148 10.3749 24.7354 11.078 24.2934L12.6148 23.3391L12.886 23.4396L13.2878 25.1974C13.4787 26.001 14.1316 26.5233 14.9753 26.5233ZM15.2365 24.6751C15.0657 24.6751 14.9753 24.6048 14.9552 24.4541L14.3525 21.9831C13.7197 21.8325 13.107 21.5713 12.6148 21.2599L10.4452 22.5958C10.3146 22.6762 10.1941 22.6662 10.0735 22.5456L9.01883 21.4909C8.8983 21.3804 8.8983 21.2599 8.97866 21.1293L10.3146 18.9597C10.0333 18.4775 9.77218 17.8749 9.62151 17.242L7.14049 16.6494C6.98982 16.6293 6.90946 16.5389 6.90946 16.3682V14.8816C6.90946 14.7008 6.97977 14.6304 7.14049 14.5903L9.61147 14.0077C9.76214 13.3347 10.0534 12.7119 10.3045 12.2599L8.96861 10.1104C8.88825 9.96973 8.88825 9.84919 8.99874 9.72866L10.0635 8.68401C10.184 8.57352 10.2945 8.55343 10.4452 8.64383L12.5947 9.95968C13.0467 9.67843 13.7197 9.39718 14.3626 9.23647L14.9552 6.76549C14.9753 6.61482 15.0657 6.53446 15.2365 6.53446H16.7532C16.924 6.53446 17.0043 6.60477 17.0345 6.76549L17.6371 9.24651C18.29 9.40723 18.8827 9.67843 19.3849 9.95968L21.5345 8.64383C21.6851 8.56348 21.7956 8.57352 21.9162 8.69406L22.9809 9.7387C23.1014 9.84919 23.1014 9.96973 23.011 10.1104L21.6851 12.2599C21.9262 12.7119 22.2275 13.3347 22.3782 14.0077L24.8492 14.5903C25.0099 14.6304 25.0702 14.7008 25.0702 14.8816V16.3682C25.0702 16.5389 24.9999 16.6293 24.8492 16.6494L22.3682 17.242C22.2175 17.8749 21.9463 18.4876 21.665 18.9597L23.001 21.1193C23.0813 21.2599 23.0813 21.3704 22.9608 21.4809L21.9061 22.5456C21.7856 22.6662 21.665 22.6762 21.5345 22.5958L19.3749 21.2599C18.8726 21.5713 18.3001 21.8224 17.6371 21.9831L17.0345 24.4541C17.0043 24.6048 16.924 24.6751 16.7532 24.6751H15.2365ZM15.9999 19.4217C18.0891 19.4217 19.8068 17.7041 19.8068 15.6048C19.8068 13.5255 18.0891 11.8079 15.9999 11.8079C13.9005 11.8079 12.1729 13.5255 12.1729 15.6048C12.1729 17.7041 13.9005 19.4217 15.9999 19.4217ZM15.9999 17.684C14.8548 17.684 13.9206 16.7499 13.9206 15.6048C13.9206 14.4798 14.8648 13.5456 15.9999 13.5456C17.1148 13.5456 18.049 14.4798 18.049 15.6048C18.049 16.7398 17.1148 17.684 15.9999 17.684Z" fill="#898989"/>
</svg>
