<svg width="24" height="24" viewBox="0 0 24 24" fill="none" xmlns="http://www.w3.org/2000/svg">
<rect width="24" height="24" fill="#F7F7F7"/>
<path d="M8.3463 18.9585H15.6538C16.6633 18.9585 17.1605 18.4613 17.1605 17.3614V11.7188C17.1605 10.7244 16.7537 10.2197 15.9099 10.1368V8.27602C15.9099 5.4133 14.0039 4.03467 12 4.03467C9.99613 4.03467 8.09016 5.4133 8.09016 8.27602V10.1594C7.30668 10.2799 6.8396 10.7771 6.8396 11.7188V17.3614C6.8396 18.4613 7.33681 18.9585 8.3463 18.9585ZM9.53659 8.14042C9.53659 6.38511 10.6515 5.42083 12 5.42083C13.341 5.42083 14.4635 6.38511 14.4635 8.14042V10.1217L9.53659 10.1293V8.14042Z" fill="#898989"/>
</svg>
