<svg width="32" height="32" viewBox="0 0 32 32" fill="none" xmlns="http://www.w3.org/2000/svg">
<path d="M8.7281 16.75H14.8553V22.8772C14.8553 23.5 15.3676 24.0223 16.0004 24.0223C16.6332 24.0223 17.1455 23.5 17.1455 22.8772V16.75H23.2727C23.8955 16.75 24.4178 16.2377 24.4178 15.6049C24.4178 14.9721 23.8955 14.4598 23.2727 14.4598H17.1455V8.33259C17.1455 7.70982 16.6332 7.1875 16.0004 7.1875C15.3676 7.1875 14.8553 7.70982 14.8553 8.33259V14.4598H8.7281C8.10533 14.4598 7.58301 14.9721 7.58301 15.6049C7.58301 16.2377 8.10533 16.75 8.7281 16.75Z" fill="#1E1E1E"/>
</svg>
