<svg width="28" height="28" viewBox="0 0 28 28" fill="none" xmlns="http://www.w3.org/2000/svg">
<path d="M21.2014 11.4089C21.7262 11.4089 22.0087 11.1183 22.0087 10.5935V8.63179C22.0087 6.90417 21.1046 6 19.3527 6H17.391C16.8662 6 16.5756 6.28255 16.5756 6.8073C16.5756 7.32397 16.8662 7.60652 17.391 7.60652H19.2478C19.9824 7.60652 20.4022 7.99403 20.4022 8.77711V10.5935C20.4022 11.1183 20.6848 11.4089 21.2014 11.4089ZM6.8073 11.4089C7.33204 11.4089 7.60652 11.1183 7.60652 10.5935V8.77711C7.60652 7.99403 8.01825 7.60652 8.76096 7.60652H10.6177C11.1425 7.60652 11.4331 7.32397 11.4331 6.8073C11.4331 6.28255 11.1425 6 10.6177 6H8.65601C6.91225 6 6 6.8961 6 8.63179V10.5935C6 11.1183 6.29063 11.4089 6.8073 11.4089ZM8.65601 22.0087H10.6177C11.1425 22.0087 11.4331 21.7181 11.4331 21.2014C11.4331 20.6848 11.1425 20.3941 10.6177 20.3941H8.76096C8.01825 20.3941 7.60652 20.0147 7.60652 19.2316V17.4152C7.60652 16.8905 7.32397 16.5998 6.8073 16.5998C6.28255 16.5998 6 16.8905 6 17.4152V19.3769C6 21.1046 6.91225 22.0087 8.65601 22.0087ZM17.391 22.0087H19.3527C21.1046 22.0087 22.0087 21.1046 22.0087 19.3769V17.4152C22.0087 16.8905 21.7181 16.5998 21.2014 16.5998C20.6767 16.5998 20.4022 16.8905 20.4022 17.4152V19.2316C20.4022 20.0147 19.9824 20.3941 19.2478 20.3941H17.391C16.8662 20.3941 16.5756 20.6848 16.5756 21.2014C16.5756 21.7181 16.8662 22.0087 17.391 22.0087Z" fill="#898989"/>
<path fill-rule="evenodd" clip-rule="evenodd" d="M15.6777 8.85718C15.2516 8.85718 14.9062 9.20256 14.9062 9.62861V12.321C14.9062 12.7471 15.2516 13.0925 15.6777 13.0925H18.3701C18.7962 13.0925 19.1415 12.7471 19.1415 12.321V9.62861C19.1415 9.20256 18.7962 8.85718 18.3701 8.85718H15.6777ZM9.6284 8.85718C9.20235 8.85718 8.85697 9.20256 8.85697 9.62861V12.321C8.85697 12.7471 9.20235 13.0925 9.6284 13.0925H12.3208C12.7469 13.0925 13.0923 12.7471 13.0923 12.321V9.62861C13.0923 9.20256 12.7469 8.85718 12.3208 8.85718H9.6284ZM9.62836 14.9064C9.20231 14.9064 8.85693 15.2518 8.85693 15.6779V18.3703C8.85693 18.7964 9.20231 19.1417 9.62836 19.1417H12.3208C12.7468 19.1417 13.0922 18.7964 13.0922 18.3703V15.6779C13.0922 15.2518 12.7468 14.9064 12.3208 14.9064H9.62836ZM15.6777 14.9064C15.2516 14.9064 14.9062 15.2518 14.9062 15.6779V18.3703C14.9062 18.7964 15.2516 19.1417 15.6777 19.1417H18.3701C18.7962 19.1417 19.1415 18.7964 19.1415 18.3703V15.6779C19.1415 15.2518 18.7962 14.9064 18.3701 14.9064H15.6777Z" fill="#898989"/>
</svg>
