<svg width="28" height="28" viewBox="0 0 28 28" fill="none" xmlns="http://www.w3.org/2000/svg">
<path fill-rule="evenodd" clip-rule="evenodd" d="M21.8398 11.1787C22.4111 11.1787 22.7188 10.8623 22.7188 10.291V8.15527C22.7188 6.27441 21.7344 5.29004 19.8271 5.29004H17.6914C17.1201 5.29004 16.8037 5.59766 16.8037 6.16895C16.8037 6.73145 17.1201 7.03906 17.6914 7.03906H19.7129C20.5127 7.03906 20.9697 7.46094 20.9697 8.31348V10.291C20.9697 10.8623 21.2773 11.1787 21.8398 11.1787ZM6.16895 11.1787C6.74023 11.1787 7.03906 10.8623 7.03906 10.291V8.31348C7.03906 7.46094 7.4873 7.03906 8.2959 7.03906H10.3174C10.8887 7.03906 11.2051 6.73145 11.2051 6.16895C11.2051 5.59766 10.8887 5.29004 10.3174 5.29004H8.18164C6.2832 5.29004 5.29004 6.26562 5.29004 8.15527V10.291C5.29004 10.8623 5.60645 11.1787 6.16895 11.1787ZM8.18164 22.7188H10.3174C10.8887 22.7188 11.2051 22.4023 11.2051 21.8398C11.2051 21.2773 10.8887 20.9609 10.3174 20.9609H8.2959C7.4873 20.9609 7.03906 20.5479 7.03906 19.6953V17.7178C7.03906 17.1465 6.73145 16.8301 6.16895 16.8301C5.59766 16.8301 5.29004 17.1465 5.29004 17.7178V19.8535C5.29004 21.7344 6.2832 22.7188 8.18164 22.7188ZM17.6914 22.7188H19.8271C21.7344 22.7188 22.7188 21.7344 22.7188 19.8535V17.7178C22.7188 17.1465 22.4023 16.8301 21.8398 16.8301C21.2686 16.8301 20.9697 17.1465 20.9697 17.7178V19.6953C20.9697 20.5479 20.5127 20.9609 19.7129 20.9609H17.6914C17.1201 20.9609 16.8037 21.2773 16.8037 21.8398C16.8037 22.4023 17.1201 22.7188 17.6914 22.7188ZM8.90002 9.40002C8.90002 9.12388 9.12388 8.90002 9.40002 8.90002H12.6C12.8762 8.90002 13.1 9.12388 13.1 9.40002V12.6C13.1 12.8762 12.8762 13.1 12.6 13.1H9.40002C9.12388 13.1 8.90002 12.8762 8.90002 12.6V9.40002ZM9.40002 14.9C9.12388 14.9 8.90002 15.1239 8.90002 15.4V18.6C8.90002 18.8762 9.12388 19.1 9.40002 19.1H12.6C12.8762 19.1 13.1 18.8762 13.1 18.6V15.4C13.1 15.1239 12.8762 14.9 12.6 14.9H9.40002ZM14.9 9.40002C14.9 9.12388 15.1239 8.90002 15.4 8.90002H18.6C18.8762 8.90002 19.1 9.12388 19.1 9.40002V12.6C19.1 12.8762 18.8762 13.1 18.6 13.1H15.4C15.1239 13.1 14.9 12.8762 14.9 12.6V9.40002ZM15.4 14.9C15.1239 14.9 14.9 15.1239 14.9 15.4V18.6C14.9 18.8762 15.1239 19.1 15.4 19.1H18.6C18.8762 19.1 19.1 18.8762 19.1 18.6V15.4C19.1 15.1239 18.8762 14.9 18.6 14.9H15.4Z" fill="#86B600"/>
</svg>
