<svg width="16" height="16" viewBox="0 0 16 16" fill="none" xmlns="http://www.w3.org/2000/svg">
<path d="M4.69027 3.19702L2.15902 5.78854C2.05858 5.88899 1.99329 6.04468 1.99329 6.18028C1.99329 6.49669 2.21427 6.71265 2.52565 6.71265C2.67632 6.71265 2.79686 6.66242 2.8973 6.55695L3.9319 5.48218L4.59485 4.71878L4.55467 5.78352V12.0464C4.55467 12.3628 4.78067 12.5888 5.09206 12.5888C5.40344 12.5888 5.62442 12.3628 5.62442 12.0464V5.78352L5.58927 4.71878L6.24719 5.48218L7.28179 6.55695C7.38224 6.66242 7.5078 6.71265 7.65846 6.71265C7.96483 6.71265 8.18581 6.49669 8.18581 6.18028C8.18581 6.04468 8.12052 5.88899 8.02007 5.78854L5.48882 3.19702C5.26784 2.96599 4.91628 2.96097 4.69027 3.19702ZM11.3097 12.413L13.8409 9.82146C13.9414 9.71599 14.0067 9.5603 14.0067 9.4247C14.0067 9.11332 13.7857 8.89736 13.4743 8.89736C13.3236 8.89736 13.2031 8.94758 13.1027 9.04803L12.0681 10.1228L11.4051 10.8862L11.4453 9.82146V3.55863C11.4453 3.25227 11.2193 3.02124 10.9079 3.02124C10.6015 3.02124 10.3755 3.25227 10.3755 3.55863V9.82146L10.4107 10.8862L9.75277 10.1228L8.71817 9.04803C8.61773 8.94758 8.49217 8.89736 8.34652 8.89736C8.03514 8.89736 7.81416 9.11332 7.81416 9.4247C7.81416 9.5603 7.87945 9.71599 7.97989 9.82146L10.5111 12.413C10.7321 12.649 11.0837 12.6541 11.3097 12.413Z" fill="#EC588D"/>
</svg>
