<svg width="29" height="29" viewBox="0 0 29 29" fill="none" xmlns="http://www.w3.org/2000/svg">
<path d="M10.3271 22.6904H18.5889C19.9512 22.6904 20.6191 22.0137 20.6191 20.5371V14.2881C20.6191 12.9785 20.0918 12.3018 19.0195 12.1611V10.1133C19.0195 6.77344 16.7959 5.16504 14.458 5.16504C12.1201 5.16504 9.89648 6.77344 9.89648 10.1133V12.1611C8.82422 12.3018 8.29688 12.9785 8.29688 14.2881V20.5371C8.29688 22.0137 8.96484 22.6904 10.3271 22.6904ZM11.584 9.95508C11.584 7.90723 12.8848 6.78223 14.458 6.78223C16.0225 6.78223 17.332 7.90723 17.332 9.95508V12.1348H11.584V9.95508ZM10.6084 21.0996C10.2217 21.0996 10.0283 20.915 10.0283 20.458V14.3672C10.0283 13.9014 10.2217 13.7344 10.6084 13.7344H18.3164C18.7031 13.7344 18.8877 13.9014 18.8877 14.3672V20.458C18.8877 20.915 18.7031 21.0996 18.3164 21.0996H10.6084Z" fill="#1E1E1E"/>
</svg>
