<svg width="29" height="29" viewBox="0 0 29 29" fill="none" xmlns="http://www.w3.org/2000/svg">
<path d="M14.4492 23.2002C19.4326 23.2002 23.5459 19.0869 23.5459 14.1123C23.5459 9.1377 19.4238 5.02441 14.4404 5.02441C9.46582 5.02441 5.36133 9.1377 5.36133 14.1123C5.36133 19.0869 9.47461 23.2002 14.4492 23.2002ZM14.4492 21.3896C10.415 21.3896 7.18945 18.1465 7.18945 14.1123C7.18945 10.0781 10.415 6.84375 14.4404 6.84375C18.4746 6.84375 21.7178 10.0781 21.7266 14.1123C21.7354 18.1465 18.4834 21.3896 14.4492 21.3896ZM11.2061 14.9473H13.6143V17.3643C13.6143 17.8477 13.957 18.1904 14.4316 18.1904C14.9238 18.1904 15.2754 17.8477 15.2754 17.3643V14.9473H17.6924C18.1758 14.9473 18.5273 14.6045 18.5273 14.1211C18.5273 13.6377 18.1846 13.2861 17.6924 13.2861H15.2754V10.8691C15.2754 10.377 14.9238 10.0342 14.4316 10.0342C13.957 10.0342 13.6143 10.377 13.6143 10.8691V13.2861H11.2061C10.7051 13.2861 10.3623 13.6377 10.3623 14.1211C10.3623 14.6045 10.7139 14.9473 11.2061 14.9473Z" fill="#1E1E1E"/>
</svg>
