<svg width="29" height="29" viewBox="0 0 29 29" fill="none" xmlns="http://www.w3.org/2000/svg">
<path d="M4.48242 23.6572C4.48242 24.1055 4.85156 24.4834 5.30859 24.4834H19.96C20.4082 24.4834 20.7773 24.1055 20.7773 23.6572C20.7773 23.209 20.4082 22.8311 19.96 22.8311H19.2832V17.1445C19.793 17.2236 20.1182 17.5752 20.1182 18.1201V19.5703C20.1182 20.8887 20.9971 21.7676 22.3154 21.7676C23.5898 21.7676 24.4336 20.8887 24.4336 19.5703V10.4824C24.4336 9.33105 24.2314 8.37305 23.8096 7.62598C23.3877 6.91406 22.7725 6.43066 21.9639 6.18457C21.5947 6.07031 21.1992 6.29004 21.085 6.65039C20.9795 7.02832 21.1816 7.43262 21.5684 7.53809C22.0254 7.66113 22.667 8.03027 22.9219 9.27832H21.7529C21.3223 9.27832 20.9883 9.6123 20.9883 10.043V13.5322C20.9883 13.9541 21.3311 14.2881 21.7529 14.2881H23.0273V19.5703C23.0273 20.0361 22.7461 20.3438 22.3154 20.3438C21.832 20.3438 21.5156 20.0361 21.5156 19.5703V18.1025C21.5156 16.6787 20.6895 15.7998 19.2832 15.7207V6.14062C19.2832 4.58496 18.4482 3.75 16.8838 3.75H8.37598C6.82031 3.75 5.98535 4.58496 5.98535 6.14062V22.8311H5.30859C4.86035 22.8311 4.48242 23.209 4.48242 23.6572ZM7.62891 6.20215C7.62891 5.6748 7.91016 5.39355 8.4375 5.39355H16.8223C17.3408 5.39355 17.6221 5.6748 17.6221 6.20215V22.8311H7.62891V6.20215ZM9.72949 14.0244H15.5391C16.1191 14.0244 16.5059 13.6641 16.5059 13.1367V7.5293C16.5059 7.00195 16.1191 6.6416 15.5391 6.6416H9.72949C9.14941 6.6416 8.75391 7.00195 8.75391 7.5293V13.1367C8.75391 13.6641 9.14941 14.0244 9.72949 14.0244Z" fill="#1E1E1E"/>
</svg>
