<svg width="29" height="29" viewBox="0 0 29 29" fill="none" xmlns="http://www.w3.org/2000/svg">
<path d="M20.7861 21.1172C23.5283 21.1172 25.6904 19.1045 25.6904 16.5908C25.6904 14.7188 24.627 13.0576 22.8779 12.3281C22.8867 8.35547 20.0215 5.49023 16.3389 5.49023C14.001 5.49023 12.2432 6.69434 11.1445 8.29395C8.91211 7.69629 6.56543 9.35742 6.47754 11.8359C4.46484 12.1963 3.22559 13.998 3.22559 16.2041C3.22559 18.876 5.56348 21.1084 8.63965 21.1084L20.7861 21.1172ZM20.7861 19.3594H19.9072C19.2217 17.9443 17.5342 16.4766 15.0117 16.4766C12.4805 16.4766 10.8018 17.9443 10.1074 19.3594H8.64844C6.55664 19.3594 5.00098 17.9004 5.00098 16.2041C5.00098 14.4463 6.08203 13.1455 7.875 13.1455C8.00684 13.1455 8.05957 13.0752 8.05078 12.9521C7.99805 10.3418 9.87012 9.44531 11.7598 10.043C11.874 10.0781 11.9443 10.0518 11.9971 9.95508C12.8672 8.42578 14.1504 7.23926 16.3301 7.23926C19.0898 7.23926 21.0586 9.42773 21.1904 11.9854C21.2168 12.46 21.1816 12.9697 21.1465 13.3916C21.1289 13.5146 21.1816 13.585 21.2959 13.6025C22.8867 13.9102 23.915 15.0352 23.915 16.5908C23.915 18.1289 22.5527 19.3594 20.7861 19.3594ZM15.0117 15.4307C16.3037 15.4395 17.3496 14.2617 17.3496 12.8643C17.3496 11.4932 16.3037 10.3682 15.0117 10.3682C13.7109 10.3682 12.665 11.4932 12.665 12.8643C12.6738 14.2529 13.7109 15.4219 15.0117 15.4307Z" fill="#1E1E1E"/>
</svg>
