<svg width="29" height="29" viewBox="0 0 29 29" fill="none" xmlns="http://www.w3.org/2000/svg">
<path d="M17.7275 10.8779C18.6768 10.8779 19.4941 10.2803 19.8369 9.4541H22.7285C23.168 9.4541 23.5371 9.06738 23.5371 8.60156C23.5371 8.13574 23.168 7.75781 22.7285 7.75781H19.8369C19.5029 6.92285 18.6855 6.3252 17.7275 6.3252C16.7695 6.3252 15.9521 6.92285 15.6182 7.75781H6.20508C5.73926 7.75781 5.37012 8.13574 5.37012 8.60156C5.37012 9.06738 5.73926 9.4541 6.20508 9.4541H15.6182C15.9609 10.2803 16.7783 10.8779 17.7275 10.8779ZM17.7275 9.68262C17.1211 9.68262 16.6465 9.19922 16.6465 8.60156C16.6465 7.98633 17.1211 7.51172 17.7275 7.51172C18.3428 7.51172 18.8086 7.98633 18.8086 8.60156C18.8086 9.19922 18.3428 9.68262 17.7275 9.68262ZM6.17871 13.2422C5.73926 13.2422 5.37012 13.6201 5.37012 14.0859C5.37012 14.543 5.73926 14.9297 6.17871 14.9297H9.16699C9.50977 15.7734 10.3271 16.3623 11.2852 16.3623C12.2344 16.3623 13.0518 15.7734 13.3945 14.9297H22.7021C23.168 14.9297 23.5371 14.5518 23.5371 14.0859C23.5371 13.6201 23.168 13.2422 22.7021 13.2422H13.3945C13.0518 12.4072 12.2344 11.8184 11.2852 11.8184C10.3271 11.8184 9.50977 12.4072 9.16699 13.2422H6.17871ZM11.2852 15.1758C10.6787 15.1758 10.1953 14.6924 10.1953 14.0859C10.1953 13.4707 10.6787 13.0049 11.2852 13.0049C11.8916 13.0049 12.3662 13.4707 12.3662 14.0859C12.3662 14.6924 11.8916 15.1758 11.2852 15.1758ZM17.7275 21.8467C18.6855 21.8467 19.5029 21.249 19.8369 20.4141H22.7285C23.168 20.4141 23.5371 20.0361 23.5371 19.5703C23.5371 19.0957 23.168 18.7266 22.7285 18.7266H19.8369C19.5029 17.8916 18.6855 17.2939 17.7275 17.2939C16.7783 17.2939 15.9521 17.8916 15.6182 18.7266H6.20508C5.73926 18.7266 5.37012 19.1045 5.37012 19.5703C5.37012 20.0273 5.73926 20.4141 6.20508 20.4141H15.6182C15.9521 21.249 16.7695 21.8467 17.7275 21.8467ZM17.7275 20.6514C17.1211 20.6514 16.6465 20.168 16.6465 19.5703C16.6465 18.9551 17.1211 18.4893 17.7275 18.4893C18.3428 18.4893 18.8086 18.9551 18.8086 19.5703C18.8086 20.168 18.3428 20.6514 17.7275 20.6514Z" fill="#1E1E1E"/>
</svg>
