<svg width="29" height="29" viewBox="0 0 29 29" fill="none" xmlns="http://www.w3.org/2000/svg">
<path d="M14.4492 23.2002C19.4326 23.2002 23.5459 19.0869 23.5459 14.1123C23.5459 9.1377 19.4238 5.02441 14.4404 5.02441C9.46582 5.02441 5.36133 9.1377 5.36133 14.1123C5.36133 19.0869 9.47461 23.2002 14.4492 23.2002ZM14.4492 21.3896C10.415 21.3896 7.18945 18.1465 7.18945 14.1123C7.18945 10.0781 10.415 6.84375 14.4404 6.84375C18.4746 6.84375 21.7178 10.0781 21.7266 14.1123C21.7354 18.1465 18.4834 21.3896 14.4492 21.3896ZM17.1826 16.4238C17.6309 16.4238 17.9121 16.0898 17.9121 15.6152V11.5283C17.9121 10.9219 17.5693 10.6406 17.0156 10.6406H12.9023C12.4277 10.6406 12.1201 10.9307 12.1201 11.3701C12.1201 11.8096 12.4277 12.0996 12.9111 12.0996H14.3965L15.583 11.959L14.291 13.1367L11.2148 16.2129C11.0654 16.3623 10.9688 16.5732 10.9688 16.7842C10.9688 17.25 11.2939 17.5576 11.751 17.5576C11.9883 17.5576 12.1816 17.4785 12.3486 17.3115L15.4072 14.2529L16.585 12.9697L16.4531 14.2266V15.624C16.4531 16.1074 16.7432 16.4238 17.1826 16.4238Z" fill="#1E1E1E"/>
</svg>
