<svg width="38" height="38" viewBox="0 0 38 38" fill="none" xmlns="http://www.w3.org/2000/svg">
<path d="M18.9879 30.8644C25.751 30.8644 31.3334 25.2821 31.3334 18.5308C31.3334 11.7796 25.7391 6.19727 18.9759 6.19727C12.2247 6.19727 6.6543 11.7796 6.6543 18.5308C6.6543 25.2821 12.2366 30.8644 18.9879 30.8644ZM18.9879 28.4072C13.5129 28.4072 9.13532 24.0058 9.13532 18.5308C9.13532 13.0559 13.5129 8.66636 18.9759 8.66636C24.4509 8.66636 28.8523 13.0559 28.8643 18.5308C28.8762 24.0058 24.4628 28.4072 18.9879 28.4072ZM14.5864 19.664H17.8547V22.9442C17.8547 23.6002 18.3199 24.0654 18.964 24.0654C19.632 24.0654 20.1091 23.6002 20.1091 22.9442V19.664H23.3893C24.0453 19.664 24.5225 19.1988 24.5225 18.5428C24.5225 17.8867 24.0573 17.4096 23.3893 17.4096H20.1091V14.1294C20.1091 13.4614 19.632 12.9962 18.964 12.9962C18.3199 12.9962 17.8547 13.4614 17.8547 14.1294V17.4096H14.5864C13.9065 17.4096 13.4413 17.8867 13.4413 18.5428C13.4413 19.1988 13.9185 19.664 14.5864 19.664Z" fill="#1E1E1E"/>
</svg>
