<svg width="38" height="38" viewBox="0 0 38 38" fill="none" xmlns="http://www.w3.org/2000/svg">
<path d="M13.3103 31.8187C13.9782 31.8187 14.4792 31.4966 15.2903 30.7809L19.3816 27.1548H26.5981C30.1884 27.1548 32.2042 25.1032 32.2042 21.5606V12.3044C32.2042 8.76182 30.1884 6.71021 26.5981 6.71021H11.3899C7.79953 6.71021 5.78369 8.76182 5.78369 12.3044V21.5606C5.78369 25.1032 7.84724 27.1548 11.3064 27.1548H11.7954V30.101C11.7954 31.1626 12.356 31.8187 13.3103 31.8187ZM13.8947 29.1945V25.795C13.8947 25.0913 13.5965 24.8169 12.9166 24.8169H11.4495C9.1951 24.8169 8.12158 23.6838 8.12158 21.489V12.376C8.12158 10.1813 9.1951 9.0481 11.4495 9.0481H26.5265C28.7809 9.0481 29.8664 10.1813 29.8664 12.376V21.489C29.8664 23.6838 28.7809 24.8169 26.5265 24.8169H19.2504C18.5347 24.8169 18.1769 24.9362 17.6759 25.461L13.8947 29.1945ZM17.7236 22.5983C18.153 22.5983 18.5228 22.3955 18.7733 22.0019L24.1051 13.6642C24.2602 13.4137 24.4033 13.1275 24.4033 12.8651C24.4033 12.2687 23.8785 11.875 23.3179 11.875C22.96 11.875 22.638 12.0778 22.3875 12.4714L17.6759 20.0338L15.4573 17.2069C15.171 16.8371 14.8848 16.7059 14.5269 16.7059C13.9425 16.7059 13.4892 17.183 13.4892 17.7675C13.4892 18.0537 13.5965 18.3162 13.7993 18.5667L16.6143 22.0138C16.9364 22.4194 17.2823 22.5983 17.7236 22.5983Z" fill="#1E1E1E"/>
</svg>
