<svg width="38" height="38" viewBox="0 0 38 38" fill="none" xmlns="http://www.w3.org/2000/svg">
<path d="M10.7817 29.6956H27.2066C29.795 29.6956 31.1429 28.3596 31.1429 25.807V11.2906C31.1429 8.73804 29.795 7.4021 27.2066 7.4021H10.7817C8.20529 7.4021 6.85742 8.72611 6.85742 11.2906V25.807C6.85742 28.3596 8.20529 29.6956 10.7817 29.6956ZM10.7698 27.3219C9.77979 27.3219 9.2311 26.809 9.2311 25.7593V14.7855C9.2311 13.7359 9.77979 13.223 10.7698 13.223H27.2185C28.2086 13.223 28.7573 13.7359 28.7573 14.7855V25.7593C28.7573 26.809 28.2086 27.3219 27.2185 27.3219H10.7698ZM12.8095 17.5051H25.2027C25.6321 17.5051 25.9542 17.1711 25.9542 16.7298C25.9542 16.3123 25.6321 15.9903 25.2027 15.9903H12.8095C12.3682 15.9903 12.0461 16.3123 12.0461 16.7298C12.0461 17.1711 12.3682 17.5051 12.8095 17.5051ZM12.8095 21.0239H25.2027C25.6321 21.0239 25.9542 20.7018 25.9542 20.2844C25.9542 19.8549 25.6321 19.509 25.2027 19.509H12.8095C12.3682 19.509 12.0461 19.8549 12.0461 20.2844C12.0461 20.7018 12.3682 21.0239 12.8095 21.0239ZM12.8095 24.5427H20.6343C21.0637 24.5427 21.3857 24.2206 21.3857 23.8031C21.3857 23.3737 21.0637 23.0397 20.6343 23.0397H12.8095C12.3682 23.0397 12.0461 23.3737 12.0461 23.8031C12.0461 24.2206 12.3682 24.5427 12.8095 24.5427Z" fill="#1E1E1E"/>
</svg>
