<svg width="38" height="38" viewBox="0 0 38 38" fill="none" xmlns="http://www.w3.org/2000/svg">
<path d="M11.7837 28.9679H14.3363C14.5629 28.9679 14.7299 29.0275 14.8969 29.1945L16.7099 30.9957C18.2725 32.5582 19.7277 32.5463 21.2784 30.9957L23.0914 29.1945C23.2584 29.0275 23.4254 28.9679 23.652 28.9679H26.2046C28.3994 28.9679 29.4371 27.9421 29.4371 25.7354V23.1828C29.4371 22.9562 29.5087 22.7892 29.6638 22.6222L31.4649 20.8091C33.0275 19.2585 33.0155 17.8033 31.4649 16.2407L29.6638 14.4276C29.4968 14.2607 29.4371 14.0937 29.4371 13.867V11.3144C29.4371 9.11968 28.4113 8.08194 26.2046 8.08194H23.652C23.4254 8.08194 23.2584 8.0223 23.0914 7.85531L21.2784 6.05418C19.7158 4.49161 18.2725 4.50354 16.7099 6.05418L14.8969 7.85531C14.7299 8.0223 14.5629 8.08194 14.3363 8.08194H11.7837C9.58892 8.08194 8.55118 9.09582 8.55118 11.3144V13.867C8.55118 14.0937 8.49154 14.2607 8.32455 14.4276L6.52342 16.2407C4.96085 17.8033 4.97277 19.2585 6.52342 20.8091L8.32455 22.6222C8.49154 22.7892 8.55118 22.9562 8.55118 23.1828V25.7354C8.55118 27.9302 9.58892 28.9679 11.7837 28.9679ZM11.9626 26.7851C10.9129 26.7851 10.7459 26.6061 10.7459 25.5565V22.4552C10.7459 22.0974 10.6386 21.823 10.3762 21.5725L8.19334 19.3897C7.44187 18.6382 7.44187 18.4235 8.19334 17.6721L10.3762 15.4892C10.6386 15.2268 10.7459 14.9644 10.7459 14.6066V11.4934C10.7459 10.4318 10.901 10.2767 11.9626 10.2767H15.0758C15.4336 10.2767 15.6961 10.1693 15.9465 9.90693L18.1294 7.7241C18.8928 6.97263 19.1075 6.97263 19.8589 7.7241L22.0418 9.90693C22.2922 10.1693 22.5666 10.2767 22.9125 10.2767H26.0257C27.0754 10.2767 27.2424 10.4437 27.2424 11.4934V14.6066C27.2543 14.9644 27.3617 15.2268 27.6121 15.4892L29.8069 17.6721C30.5464 18.4235 30.5464 18.6382 29.8069 19.3897L27.6121 21.5725C27.3617 21.823 27.2543 22.0974 27.2543 22.4552L27.2424 25.5565C27.2424 26.6061 27.0754 26.7851 26.0257 26.7851H22.9125C22.5666 26.7851 22.2922 26.8805 22.0418 27.1429L19.8589 29.3377C19.1075 30.0772 18.8928 30.0772 18.1294 29.3377L15.9465 27.1429C15.6961 26.8805 15.4336 26.7851 15.0758 26.7851H11.9626Z" fill="#1E1E1E"/>
</svg>
