<svg width="38" height="38" viewBox="0 0 38 38" fill="none" xmlns="http://www.w3.org/2000/svg">
<path d="M18.9999 6.19736C12.2368 6.19736 6.65444 11.7797 6.65444 18.5309C6.65444 25.2822 12.2487 30.8645 19.0119 30.8645C25.7631 30.8645 31.3335 25.2822 31.3335 18.5309C31.3335 11.7797 25.7512 6.19736 18.9999 6.19736ZM18.9999 8.65453C24.4749 8.65453 28.8525 13.056 28.8525 18.5309C28.8525 24.0059 24.4749 28.3954 19.0119 28.3954C13.5369 28.3954 9.13547 24.0059 9.12354 18.5309C9.11161 13.056 13.525 8.65453 18.9999 8.65453ZM15.2903 15.3939C14.682 15.3939 14.3003 15.8471 14.3003 16.4912L14.3003 22.0378C14.3003 22.8608 14.7655 23.2425 15.517 23.2425L21.0993 23.2425C21.7434 23.2425 22.1609 22.8489 22.1609 22.2525C22.1609 21.6561 21.7434 21.2624 21.0873 21.2624L19.0715 21.2624L17.4612 21.4533L19.2146 19.8549L23.3894 15.6801C23.5922 15.4774 23.7234 15.1911 23.7234 14.9048C23.7234 14.2726 23.2821 13.8551 22.6618 13.8551C22.3398 13.8551 22.0774 13.9625 21.8507 14.1891L17.6998 18.3401L16.1014 20.0816L16.2803 18.3759L16.2803 16.4793C16.2803 15.8233 15.8867 15.3939 15.2903 15.3939Z" fill="#1E1E1E"/>
</svg>
