<svg width="38" height="38" viewBox="0 0 38 38" fill="none" xmlns="http://www.w3.org/2000/svg">
<path d="M19.0001 30.8763C25.7514 30.8763 31.3337 25.294 31.3337 18.5428C31.3337 11.7796 25.7395 6.19727 18.9882 6.19727C12.7379 6.19727 7.47768 10.9923 6.75007 17.1114C7.28683 16.9921 7.83552 16.9325 8.40806 16.9325C12.0938 16.9325 15.207 19.5209 16.0062 22.8846C16.9127 22.6699 17.9028 22.5386 18.9882 22.5386C22.3996 22.5386 25.0238 23.7911 26.2762 25.2105C24.5109 27.1786 21.8509 28.4311 18.9882 28.4311C17.867 28.4311 16.6384 28.2045 15.5887 27.787C15.386 28.4311 14.8969 29.2303 14.2766 29.9102C15.7438 30.5304 17.3302 30.8763 19.0001 30.8763ZM18.9882 20.4751C16.6742 20.4512 14.8969 18.5189 14.885 15.9663C14.8611 13.5569 16.6861 11.541 18.9882 11.541C21.2784 11.541 23.0914 13.5569 23.0914 15.9663C23.0914 18.5189 21.3022 20.499 18.9882 20.4751ZM8.40806 30.924C11.7479 30.924 14.551 28.1329 14.551 24.7692C14.551 21.4055 11.7837 18.6263 8.40806 18.6263C5.04436 18.6263 2.26514 21.4055 2.26514 24.7692C2.26514 28.1448 5.04436 30.924 8.40806 30.924ZM8.40806 25.8069C7.93094 25.8069 7.59696 25.4849 7.58503 25.0197L7.47768 21.656C7.46575 21.1073 7.84745 20.7256 8.40806 20.7256C8.96868 20.7256 9.36231 21.1073 9.33845 21.656L9.24302 25.0197C9.2311 25.4849 8.88518 25.8069 8.40806 25.8069ZM8.40806 28.7889C7.78781 28.7889 7.29876 28.3118 7.29876 27.6915C7.29876 27.0951 7.78781 26.618 8.40806 26.618C9.02832 26.618 9.51737 27.0951 9.51737 27.6915C9.51737 28.3118 9.02832 28.7889 8.40806 28.7889Z" fill="#1E1E1E"/>
</svg>
