<svg width="38" height="38" viewBox="0 0 38 38" fill="none" xmlns="http://www.w3.org/2000/svg">
<path d="M18.9879 30.8644C25.751 30.8644 31.3334 25.2821 31.3334 18.5308C31.3334 11.7796 25.7391 6.19727 18.9759 6.19727C12.2247 6.19727 6.6543 11.7796 6.6543 18.5308C6.6543 25.2821 12.2366 30.8644 18.9879 30.8644ZM18.9879 28.4072C13.5129 28.4072 9.13532 24.0058 9.13532 18.5308C9.13532 13.0559 13.5129 8.66636 18.9759 8.66636C24.4509 8.66636 28.8523 13.0559 28.8643 18.5308C28.8762 24.0058 24.4628 28.4072 18.9879 28.4072ZM22.6975 21.6679C23.3058 21.6679 23.6875 21.2146 23.6875 20.5705V15.024C23.6875 14.201 23.2223 13.8193 22.4708 13.8193H16.8885C16.2444 13.8193 15.8269 14.2129 15.8269 14.8093C15.8269 15.4057 16.2444 15.7993 16.9005 15.7993H18.9163L20.5266 15.6085L18.7732 17.2068L14.5984 21.3816C14.3956 21.5844 14.2644 21.8707 14.2644 22.157C14.2644 22.7891 14.7057 23.2066 15.326 23.2066C15.648 23.2066 15.9104 23.0993 16.1371 22.8726L20.288 18.7217L21.8864 16.9802L21.7074 18.6859V20.5825C21.7074 21.2385 22.1011 21.6679 22.6975 21.6679Z" fill="#1E1E1E"/>
</svg>
