<svg width="24" height="33" viewBox="0 0 24 33" fill="none" xmlns="http://www.w3.org/2000/svg">
<path d="M12 7.21887V7.23234M12 16.6465V16.6599M12 26.0741V26.0876M12 8.56567C11.7348 8.56567 11.4804 8.42378 11.2929 8.1712C11.1054 7.91863 11 7.57607 11 7.21887C11 6.86168 11.1054 6.51911 11.2929 6.26654C11.4804 6.01397 11.7348 5.87207 12 5.87207C12.2652 5.87207 12.5196 6.01397 12.7071 6.26654C12.8946 6.51911 13 6.86168 13 7.21887C13 7.57607 12.8946 7.91863 12.7071 8.1712C12.5196 8.42378 12.2652 8.56567 12 8.56567ZM12 17.9933C11.7348 17.9933 11.4804 17.8514 11.2929 17.5988C11.1054 17.3462 11 17.0037 11 16.6465C11 16.2893 11.1054 15.9467 11.2929 15.6941C11.4804 15.4416 11.7348 15.2997 12 15.2997C12.2652 15.2997 12.5196 15.4416 12.7071 15.6941C12.8946 15.9467 13 16.2893 13 16.6465C13 17.0037 12.8946 17.3462 12.7071 17.5988C12.5196 17.8514 12.2652 17.9933 12 17.9933ZM12 27.4209C11.7348 27.4209 11.4804 27.279 11.2929 27.0264C11.1054 26.7738 11 26.4313 11 26.0741C11 25.7169 11.1054 25.3743 11.2929 25.1218C11.4804 24.8692 11.7348 24.7273 12 24.7273C12.2652 24.7273 12.5196 24.8692 12.7071 25.1218C12.8946 25.3743 13 25.7169 13 26.0741C13 26.4313 12.8946 26.7738 12.7071 27.0264C12.5196 27.279 12.2652 27.4209 12 27.4209Z" stroke="#3F3F46" stroke-width="2" stroke-linecap="round" stroke-linejoin="round"/>
</svg>
