<svg width="175" height="154" viewBox="0 0 175 154" fill="none" xmlns="http://www.w3.org/2000/svg">
<path d="M150.122 93.9398C219.622 141.44 122.588 147.94 88.6222 147.94C54.6566 147.94 1.62216 126.94 27.1221 93.9398C-1.87784 65.9398 -35.3778 1.4399 88.6222 39.9398C122.588 39.9398 169.122 47.4398 150.122 93.9398Z" fill="#48BE93"/>
<path d="M110.5 74.991C110.5 84.1568 110.5 90.5 110.5 91.5C105.941 92.8792 111.322 150.051 104.5 152C97.9651 151.359 58.4078 149 54.5001 148.5C43.1594 147.048 48.5 90.4382 48.5 80.991C48.5 68.2884 50.9234 30.5 75.5 30.5C100.077 30.5 110.5 62.2884 110.5 74.991Z" fill="white"/>
<path d="M50.4999 60.009C49.8332 84.009 48.8999 134.809 50.4999 146.009M111.5 52.509C111.833 81.8424 109.7 142.409 106.5 150.009" stroke="black" stroke-width="6" stroke-linecap="round" stroke-linejoin="round"/>
<path fill-rule="evenodd" clip-rule="evenodd" d="M110 64.509C110 80.8014 96.7924 94.009 80.5 94.009C64.2076 94.009 51 80.8014 51 64.509C51 48.2166 64.2076 35.009 80.5 35.009C96.7924 35.009 110 48.2166 110 64.509ZM85.0655 104.755C105.284 102.486 121 85.333 121 64.509C121 42.1415 102.868 24.009 80.5 24.009C58.1325 24.009 40 42.1415 40 64.509C40 85.3719 55.7749 102.55 76.0476 104.767V140.5C76.0476 142.99 78.0663 145.009 80.5565 145.009C83.0468 145.009 85.0655 142.99 85.0655 140.5V135.991H95.2857V128.777H85.0655V124.569H95.2857V117.354H85.0655V104.755Z" fill="#FFF870"/>
<path d="M124 46.009C124 58.7116 104 62.009 79.5 69.009C54 66.509 35 58.7116 35 46.009C35 33.3065 53.4233 4.00903 78 4.00903C102.577 4.00903 124 33.3065 124 46.009Z" fill="white"/>
<path d="M64.2322 52.0086C63.3989 53.6753 59.9999 61.6158 50.9999 60.0086C36.9999 57.5086 34.9999 47.509 39.9999 27.509C44.9999 7.50903 62.4864 3.4765 83.9999 3.00878C107 2.50874 119 23.509 122 30.509C125 37.509 124.5 56.509 111 52.0086M102 25.5086C108.833 36.1753 118.4 60 102 62C97.4999 62.5488 92.9999 59.5086 91.9999 57.0086M68.4999 32.0086C62.9999 42.5086 58.9999 67.0087 80.4999 66.0087C102 65.0087 85.9999 33.0086 85.9999 33.0086" stroke="black" stroke-width="6" stroke-linecap="round" stroke-linejoin="round"/>
</svg>
