<svg width="19" height="20" viewBox="0 0 19 20" fill="none" xmlns="http://www.w3.org/2000/svg">
<path d="M5.02423 0.32951C5.77519 0.58365 6.4896 0.934959 7.14923 1.37447C8.08081 1.13662 9.03871 1.01713 10.0002 1.01883C10.9932 1.01883 11.9512 1.1427 12.8492 1.37347C13.5086 0.934387 14.2227 0.583417 14.9732 0.32951C15.6702 0.0927452 16.6632 -0.290874 17.2532 0.361479C17.6532 0.805039 17.7532 1.5483 17.8242 2.11574C17.9042 2.74911 17.9232 3.57429 17.7132 4.39348C18.5162 5.42945 19.0002 6.66523 19.0002 8.01189C19.0002 10.0519 17.8942 11.8231 16.2572 13.0499C15.4694 13.6328 14.5956 14.0899 13.6672 14.4046C13.8812 14.8941 14.0002 15.4355 14.0002 16.004V19.001C14.0002 19.2659 13.8949 19.52 13.7073 19.7074C13.5198 19.8947 13.2654 20 13.0002 20H7.00023C6.73501 20 6.48066 19.8947 6.29312 19.7074C6.10559 19.52 6.00023 19.2659 6.00023 19.001V18.011C5.04523 18.1279 4.24423 18.024 3.56323 17.7352C2.85123 17.4335 2.35523 16.966 1.98223 16.5185C1.62823 16.0949 1.24223 15.1398 0.684229 14.954C0.559605 14.9125 0.444374 14.847 0.345117 14.761C0.245859 14.6751 0.164519 14.5705 0.105739 14.4531C-0.0129713 14.2161 -0.032579 13.9417 0.0512294 13.6903C0.135038 13.4388 0.315397 13.2309 0.552631 13.1123C0.789864 12.9937 1.06454 12.9742 1.31623 13.0579C1.98223 13.2797 2.41623 13.7592 2.71323 14.1448C3.19323 14.7642 3.58323 15.5734 4.34323 15.8961C4.65623 16.0289 5.11523 16.1159 5.83323 16.0179L6.00023 15.984C6.00214 15.4403 6.11547 14.9028 6.33323 14.4046C5.40482 14.0899 4.53104 13.6329 3.74323 13.0499C2.10623 11.8231 1.00023 10.0529 1.00023 8.01189C1.00023 6.66722 1.48323 5.43245 2.28423 4.39748C2.07423 3.57829 2.09223 2.75111 2.17223 2.11674L2.17723 2.07878C2.25023 1.49735 2.33523 0.813031 2.74323 0.361479C3.33323 -0.290874 4.32723 0.0937444 5.02323 0.33051L5.02423 0.32951Z" fill="black"/>
</svg>
