<svg width="24" height="20" viewBox="0 0 24 20" fill="none" xmlns="http://www.w3.org/2000/svg">
<path fill-rule="evenodd" clip-rule="evenodd" d="M21.514 0.136826C21.8091 0.0156739 22.1321 -0.0261107 22.4493 0.015821C22.7666 0.0577526 23.0665 0.181868 23.3179 0.375248C23.5693 0.568629 23.763 0.824205 23.8788 1.11537C23.9946 1.40654 24.0282 1.72267 23.9762 2.03083L21.268 18.0553C21.0053 19.601 19.2667 20.4875 17.8135 19.7175C16.5979 19.0734 14.7924 18.0809 13.1684 17.0454C12.3564 16.5271 9.86912 14.8672 10.1748 13.6861C10.4375 12.6762 14.6169 8.88116 17.0051 6.6249C17.9424 5.73847 17.515 5.22711 16.408 6.04249C13.658 8.06695 9.2458 11.1456 7.78661 12.0122C6.49937 12.7763 5.82828 12.9068 5.02584 12.7763C3.56187 12.5387 2.20418 12.1706 1.09605 11.7222C-0.401352 11.1165 -0.328512 9.1083 1.09486 8.52356L21.514 0.136826Z" fill="black"/>
</svg>
