<svg width="23" height="20" viewBox="0 0 23 20" fill="none" xmlns="http://www.w3.org/2000/svg">
<path d="M1.92788 1.15808C2.14706 1.13332 2.36902 1.16726 2.56979 1.25621C2.77056 1.34516 2.94249 1.48574 3.067 1.66277C4.85377 4.2027 6.99885 5.25914 9.37998 5.49914C9.4962 4.50975 9.77099 3.53213 10.2879 2.67098C11.0457 1.40748 12.278 0.478096 14.0382 0.134576C16.4713 -0.340706 18.3235 0.515742 19.3972 1.56395L21.5665 1.16984C21.7935 1.12851 22.028 1.15114 22.2421 1.23507C22.4563 1.31901 22.6414 1.46073 22.7754 1.64353C22.9094 1.82633 22.9868 2.04257 22.9985 2.26673C23.0101 2.49089 22.9556 2.71361 22.8412 2.90862L20.7591 6.46382C20.9491 11.5943 19.482 15.1754 16.3539 17.6423C14.6955 18.9505 12.3204 19.6929 9.71409 19.9223C7.08722 20.1529 4.11776 19.874 1.16645 19.0364C0.914288 18.9649 0.692889 18.8157 0.53567 18.6112C0.378451 18.4067 0.293944 18.158 0.2949 17.9028C0.295857 17.6475 0.382226 17.3995 0.540974 17.1961C0.699721 16.9927 0.922232 16.845 1.17493 16.7753C2.65905 16.3647 3.7897 16.0106 4.81019 15.3906C3.35875 14.6424 2.28984 13.6636 1.53325 12.5484C0.482497 10.9978 0.0927018 9.26845 0.0152271 7.70967C-0.0622476 6.15089 0.168966 4.70622 0.413496 3.66507C0.552708 3.07097 0.714921 2.47569 0.938871 1.90629C1.01787 1.70558 1.15192 1.52973 1.32649 1.39783C1.50106 1.26592 1.70825 1.18301 1.92788 1.15808Z" fill="black"/>
</svg>
