<svg width="38" height="38" viewBox="0 0 38 38" fill="none" xmlns="http://www.w3.org/2000/svg">
<path d="M19 38C29.5292 38 38 29.5292 38 19C38 8.47077 29.5292 0 19 0C8.47077 0 0 8.47077 0 19C0 29.5292 8.47077 38 19 38Z" fill="#D7D7D7"/>
<path d="M18.9903 31.3239C25.7535 31.3239 31.3358 25.7416 31.3358 18.9903C31.3358 12.239 25.7416 6.65674 18.9784 6.65674C12.2271 6.65674 6.65674 12.239 6.65674 18.9903C6.65674 25.7416 12.239 31.3239 18.9903 31.3239ZM18.9903 28.8667C13.5153 28.8667 9.13777 24.4653 9.13777 18.9903C9.13777 13.5153 13.5153 9.12584 18.9784 9.12584C24.4533 9.12584 28.8548 13.5153 28.8667 18.9903C28.8786 24.4653 24.4653 28.8667 18.9903 28.8667ZM18.7279 21.364C19.3839 21.364 19.8014 20.9823 19.8372 20.4932C19.8372 20.4574 19.8372 20.3978 19.8491 20.3501C19.8849 19.7418 20.3024 19.3362 21.0777 18.8233C22.2586 18.0599 23.01 17.3681 23.01 15.9964C23.01 14.0163 21.2208 12.8712 19.0977 12.8712C17.058 12.8712 15.6624 13.8016 15.2926 14.9229C15.2211 15.1256 15.1733 15.3284 15.1733 15.5431C15.1733 16.1276 15.6266 16.4854 16.1753 16.4854C16.879 16.4854 17.0341 16.1276 17.4039 15.722C17.7856 15.1256 18.2866 14.7797 18.9903 14.7797C19.9326 14.7797 20.5529 15.3165 20.5529 16.1157C20.5529 16.8433 20.0519 17.2369 19.038 17.9287C18.1911 18.5251 17.5709 19.1334 17.5709 20.207V20.3382C17.5709 21.0181 17.9884 21.364 18.7279 21.364ZM18.704 25.0259C19.4674 25.0259 20.0996 24.4772 20.0996 23.7138C20.0996 22.9623 19.4794 22.4017 18.704 22.4017C17.9287 22.4017 17.2965 22.9623 17.2965 23.7138C17.2965 24.4653 17.9287 25.0259 18.704 25.0259Z" fill="#1E1E1E"/>
</svg>
