<svg width="48" height="51" viewBox="0 0 48 51" fill="none" xmlns="http://www.w3.org/2000/svg">
<g filter="url(#filter0_i_2107_8281)">
<path d="M27.9529 29.5772L33.6665 44.5295L29.6051 46.7683L25.5357 36.1143C25.5355 36.1138 25.5353 36.1133 25.5351 36.1128C25.5104 36.0454 25.5104 35.9734 25.5351 35.9059L27.9529 29.5772Z" stroke="white"/>
<path d="M29.7187 24.9648L32.1365 18.636L40.5799 40.7218L36.5184 42.9607L29.7193 25.1732C29.7191 25.1726 29.7189 25.1721 29.7187 25.1716C29.694 25.1042 29.694 25.0322 29.7187 24.9648Z" stroke="white"/>
<path d="M2.94628 39.1082C1.74144 38.4447 1 37.2183 1 35.8913V15.1061C1 13.7791 1.74144 12.5527 2.94628 11.8892L21.8025 1.49862C22.4049 1.16487 23.0789 1 23.7488 1C24.4186 1 25.0926 1.16487 25.6951 1.49862L44.5597 11.8892C45.7645 12.5527 46.506 13.7791 46.506 15.1061V35.8913C46.506 37.2183 45.7645 38.4447 44.5597 39.1082M21.8067 49.5028C22.4091 49.8326 23.0789 50.0015 23.753 50.0015C24.4228 50.0015 25.0968 49.8366 25.6993 49.5028" stroke="white"/>
<path d="M17.0453 14.3317L17.0456 14.3307C17.0897 14.2147 17.2156 14.1184 17.3786 14.1184H22.0429L11.0124 42.9851L6.95096 40.7463L17.0453 14.3317Z" stroke="white"/>
<path d="M25.4113 14.3317L25.4116 14.3307C25.4557 14.2147 25.5816 14.1184 25.7446 14.1184H30.4089L17.925 46.7891L13.8636 44.5503L25.4113 14.3317Z" stroke="white"/>
</g>
<defs>
<filter id="filter0_i_2107_8281" x="0.5" y="0" width="47.0059" height="50.5015" filterUnits="userSpaceOnUse" color-interpolation-filters="sRGB">
<feFlood flood-opacity="0" result="BackgroundImageFix"/>
<feBlend mode="normal" in="SourceGraphic" in2="BackgroundImageFix" result="shape"/>
<feColorMatrix in="SourceAlpha" type="matrix" values="0 0 0 0 0 0 0 0 0 0 0 0 0 0 0 0 0 0 127 0" result="hardAlpha"/>
<feOffset dx="1" dy="-1"/>
<feGaussianBlur stdDeviation="0.25"/>
<feComposite in2="hardAlpha" operator="arithmetic" k2="-1" k3="1"/>
<feColorMatrix type="matrix" values="0 0 0 0 0 0 0 0 0 0 0 0 0 0 0 0 0 0 0.25 0"/>
<feBlend mode="normal" in2="shape" result="effect1_innerShadow_2107_8281"/>
</filter>
</defs>
</svg>
