<svg width="28" height="52" viewBox="0 0 28 52" fill="none" xmlns="http://www.w3.org/2000/svg">
<g filter="url(#filter0_i_2072_6342)">
<path d="M2.9753 34.9201L2.97393 34.9196C2.85651 34.8776 2.74323 34.9134 2.65843 35.0345C2.57135 35.1588 2.55457 35.3272 2.65168 35.4761L12.6105 50.7284C12.6108 50.729 12.6112 50.7296 12.6116 50.7302C13.2954 51.7564 14.6992 51.7564 15.3829 50.7301C15.3833 50.7295 15.3836 50.729 15.384 50.7284L25.3428 35.4761L2.9753 34.9201ZM2.9753 34.9201L12.8596 38.4247C13.2505 38.5795 13.634 38.628 13.9972 38.628C14.3605 38.628 14.744 38.5795 15.1349 38.4247L25.0192 34.9201L25.0205 34.9196M2.9753 34.9201L25.0205 34.9196M25.0205 34.9196C25.138 34.8776 25.2512 34.9134 25.336 35.0345M25.0205 34.9196L25.336 35.0345M25.336 35.0345C25.4231 35.1587 25.4399 35.327 25.343 35.4758L25.336 35.0345ZM27.0099 26.3421L13.9973 31.0083L0.988439 26.3421C0.988199 26.342 0.98796 26.3419 0.987721 26.3418C0.585352 26.1956 0.359781 25.6613 0.593747 25.2059C0.593778 25.2058 0.59381 25.2057 0.593841 25.2057L12.5207 2.08581C13.1746 0.860068 14.8279 0.860068 15.4818 2.08581L27.4082 25.2048C27.4084 25.205 27.4085 25.2053 27.4086 25.2055C27.6389 25.6568 27.4131 26.1957 27.0106 26.3418C27.0104 26.3419 27.0102 26.342 27.0099 26.3421Z" stroke="white"/>
</g>
<defs>
<filter id="filter0_i_2072_6342" x="0" y="0.166504" width="28.5" height="51.8335" filterUnits="userSpaceOnUse" color-interpolation-filters="sRGB">
<feFlood flood-opacity="0" result="BackgroundImageFix"/>
<feBlend mode="normal" in="SourceGraphic" in2="BackgroundImageFix" result="shape"/>
<feColorMatrix in="SourceAlpha" type="matrix" values="0 0 0 0 0 0 0 0 0 0 0 0 0 0 0 0 0 0 127 0" result="hardAlpha"/>
<feOffset dx="1" dy="-1"/>
<feGaussianBlur stdDeviation="0.25"/>
<feComposite in2="hardAlpha" operator="arithmetic" k2="-1" k3="1"/>
<feColorMatrix type="matrix" values="0 0 0 0 0 0 0 0 0 0 0 0 0 0 0 0 0 0 0.25 0"/>
<feBlend mode="normal" in2="shape" result="effect1_innerShadow_2072_6342"/>
</filter>
</defs>
</svg>
