<svg width="74" height="40" viewBox="0 0 74 40" fill="none" xmlns="http://www.w3.org/2000/svg">
<g filter="url(#filter0_i_2595_7174)">
<path d="M15.1862 9.41682L15.1862 9.41684C16.7303 8.12347 18.5848 7.46447 20.7246 7.46447C22.5236 7.46447 23.9622 7.90458 24.9483 8.87357C25.936 9.84416 26.3841 11.261 26.3841 13.0274C26.3841 13.8897 26.2938 14.7185 26.1445 15.5129C25.7072 18.1327 25.067 21.1633 24.2253 24.6617L15.1862 9.41682ZM15.1862 9.41682L15.1824 9.42006M15.1862 9.41682L15.1824 9.42006M15.1824 9.42006C13.6573 10.7236 12.6033 12.6957 11.9791 15.3027C11.3082 17.8065 10.6684 20.8384 10.0016 24.4514C9.85159 25.2181 9.76101 26.0187 9.76087 26.8817C9.74607 28.6795 10.2017 30.1124 11.2053 31.0908C12.2062 32.0665 13.6661 32.5059 15.4783 32.5059C17.6182 32.5059 19.4448 31.8468 20.9607 30.5519M15.1824 9.42006L20.9607 30.5519M20.9607 30.5519C22.5154 29.2488 23.6004 27.2753 24.2253 24.6617L20.9607 30.5519ZM28.6668 1.90784L28.6668 1.90795L28.6773 1.91232C30.7923 2.79356 32.453 4.15254 33.6721 5.96387L33.6742 5.96689C34.885 7.73777 35.5 9.85668 35.5 12.3464C35.5 13.0814 35.4168 14.0303 35.2452 15.1998C34.6962 18.4756 34.0613 21.6874 33.2832 24.778C32.0256 29.7707 29.8963 33.4806 26.8751 35.9094C23.8886 38.304 19.8378 39.5 14.6957 39.5C10.4586 39.5 7.03667 38.4846 4.38992 36.4934C1.80739 34.4997 0.5 31.6368 0.5 27.8905C0.5 27.096 0.58332 26.1471 0.754605 24.9793C1.21611 22.3286 1.88006 19.1436 2.74744 15.3927C3.96084 10.3783 6.1241 6.66906 9.19991 4.20992C12.2752 1.75121 16.3154 0.5 21.3623 0.5C24.0887 0.5 26.5392 0.964144 28.6668 1.90784Z" stroke="white"/>
</g>
<g filter="url(#filter1_i_2595_7174)">
<path d="M42.62 1.53739L42.6237 1.52051L42.6262 1.50342C42.6666 1.22805 42.8007 1.00599 43.0835 0.799715L43.092 0.793538L43.1002 0.78701C43.3537 0.585341 43.6189 0.5 43.9159 0.5H59.5371C63.8245 0.5 67.1939 1.37012 69.7174 3.0352C72.234 4.70537 73.5 7.0731 73.5 10.2283C73.5 11.1284 73.3805 12.0966 73.167 13.1057C72.2169 17.3952 70.3011 20.4998 67.4212 22.5125L67.4172 22.5154C64.589 24.5342 60.6662 25.5578 55.5926 25.5578H47.6725H47.2686L47.1837 25.9527L44.492 38.4617C44.4919 38.462 44.4918 38.4624 44.4917 38.4627C44.4199 38.7879 44.2906 39.0089 44.0282 39.2003L44.0197 39.2065L44.0115 39.213C43.7581 39.4147 43.4928 39.5 43.1958 39.5H35.2131C34.9099 39.5 34.744 39.429 34.6126 39.3003C34.5136 39.1217 34.476 38.9234 34.5153 38.6608L42.62 1.53739ZM63.2468 13.21L63.2498 13.198L63.2522 13.1859C63.3819 12.5238 63.4493 11.9123 63.4493 11.3851C63.4493 10.1826 63.0682 9.1808 62.282 8.48673C61.4809 7.74885 60.1617 7.44521 58.5353 7.44521H51.4917H51.0887L51.0031 7.83903L48.7804 18.0673L48.6487 18.6735H49.269H55.9996C57.7504 18.6735 59.2638 18.2217 60.579 17.2714C61.9395 16.3113 62.8148 14.9551 63.2468 13.21Z" stroke="white"/>
</g>
<defs>
<filter id="filter0_i_2595_7174" x="0" y="-0.5" width="36.5" height="40.5" filterUnits="userSpaceOnUse" color-interpolation-filters="sRGB">
<feFlood flood-opacity="0" result="BackgroundImageFix"/>
<feBlend mode="normal" in="SourceGraphic" in2="BackgroundImageFix" result="shape"/>
<feColorMatrix in="SourceAlpha" type="matrix" values="0 0 0 0 0 0 0 0 0 0 0 0 0 0 0 0 0 0 127 0" result="hardAlpha"/>
<feOffset dx="1" dy="-1"/>
<feGaussianBlur stdDeviation="0.25"/>
<feComposite in2="hardAlpha" operator="arithmetic" k2="-1" k3="1"/>
<feColorMatrix type="matrix" values="0 0 0 0 0 0 0 0 0 0 0 0 0 0 0 0 0 0 0.25 0"/>
<feBlend mode="normal" in2="shape" result="effect1_innerShadow_2595_7174"/>
</filter>
<filter id="filter1_i_2595_7174" x="34" y="-0.5" width="40.5" height="40.5" filterUnits="userSpaceOnUse" color-interpolation-filters="sRGB">
<feFlood flood-opacity="0" result="BackgroundImageFix"/>
<feBlend mode="normal" in="SourceGraphic" in2="BackgroundImageFix" result="shape"/>
<feColorMatrix in="SourceAlpha" type="matrix" values="0 0 0 0 0 0 0 0 0 0 0 0 0 0 0 0 0 0 127 0" result="hardAlpha"/>
<feOffset dx="1" dy="-1"/>
<feGaussianBlur stdDeviation="0.25"/>
<feComposite in2="hardAlpha" operator="arithmetic" k2="-1" k3="1"/>
<feColorMatrix type="matrix" values="0 0 0 0 0 0 0 0 0 0 0 0 0 0 0 0 0 0 0.25 0"/>
<feBlend mode="normal" in2="shape" result="effect1_innerShadow_2595_7174"/>
</filter>
</defs>
</svg>
