<svg width="22" height="22" viewBox="0 0 22 22" fill="none" xmlns="http://www.w3.org/2000/svg">
<path fill-rule="evenodd" clip-rule="evenodd" d="M11 0.5C11.557 0.5 12.0911 0.72125 12.4849 1.11508C12.8787 1.5089 13.1 2.04305 13.1 2.6V8.9H19.4C19.957 8.9 20.4911 9.12125 20.8849 9.51508C21.2787 9.9089 21.5 10.443 21.5 11C21.5 11.557 21.2787 12.0911 20.8849 12.4849C20.4911 12.8787 19.957 13.1 19.4 13.1H13.1V19.4C13.1 19.957 12.8787 20.4911 12.4849 20.8849C12.0911 21.2787 11.557 21.5 11 21.5C10.443 21.5 9.9089 21.2787 9.51508 20.8849C9.12125 20.4911 8.9 19.957 8.9 19.4V13.1H2.6C2.04305 13.1 1.5089 12.8787 1.11508 12.4849C0.72125 12.0911 0.5 11.557 0.5 11C0.5 10.443 0.72125 9.9089 1.11508 9.51508C1.5089 9.12125 2.04305 8.9 2.6 8.9H8.9V2.6C8.9 2.04305 9.12125 1.5089 9.51508 1.11508C9.9089 0.72125 10.443 0.5 11 0.5Z" fill="#3840FF"/>
</svg>
