<svg width="1101" height="596" viewBox="0 0 1101 596" fill="none" xmlns="http://www.w3.org/2000/svg">
<g clip-path="url(#clip0_1159_410)">
<path opacity="0.03" d="M1101 245.5C1101 381.086 991.086 491 855.5 491C501 471 610 381.086 610 245.5C610 109.914 719.914 0 855.5 0C978 299 1101 109.914 1101 245.5Z" fill="#1231F1"/>
<path opacity="0.03" d="M800 400C800 494.441 723.441 571 629 571C534.559 571 458 494.441 458 400C458 305.559 534.559 229 629 229C723.441 229 800 305.559 800 400Z" fill="#1231F1"/>
<path opacity="0.03" d="M842 477.5C842 504.286 820.286 526 793.5 526C766.714 526 745 504.286 745 477.5C745 450.714 766.714 429 793.5 429C820.286 429 842 450.714 842 477.5Z" fill="#1231F1"/>
<path opacity="0.03" d="M491 367.5C491 428.527 441.527 478 380.5 478C319.473 478 270 428.527 270 367.5C270 306.473 319.473 257 380.5 257C441.527 257 491 306.473 491 367.5Z" fill="#1231F1"/>
<path opacity="0.03" d="M374 409C446.5 514.5 290.277 596 187 596C83.7228 596 0 512.277 0 409C201 374 83.7228 222 187 222C290.277 222 217 360.5 374 409Z" fill="#1231F1"/>
</g>
<defs>
<clipPath id="clip0_1159_410">
<rect width="1101" height="596" fill="white"/>
</clipPath>
</defs>
</svg>
