<svg width="20" height="20" viewBox="0 0 20 20" fill="none" xmlns="http://www.w3.org/2000/svg">
<path fill-rule="evenodd" clip-rule="evenodd" d="M11.4286 7.71427C11.6559 7.71427 11.8739 7.80457 12.0347 7.96532C12.1954 8.12607 12.2857 8.34408 12.2857 8.57141V14.2857C12.2857 14.513 12.1954 14.731 12.0347 14.8918C11.8739 15.0525 11.6559 15.1428 11.4286 15.1428H5.71429C5.48696 15.1428 5.26894 15.0525 5.1082 14.8918C4.94745 14.731 4.85714 14.513 4.85714 14.2857V8.57141C4.85714 8.34408 4.94745 8.12607 5.1082 7.96532C5.26894 7.80457 5.48696 7.71427 5.71429 7.71427H11.4286ZM12.8428 7.1572C12.4677 6.78213 11.959 6.57141 11.4286 6.57141H5.71429C5.18385 6.57141 4.67515 6.78213 4.30007 7.1572C3.925 7.53227 3.71429 8.04098 3.71429 8.57141V14.2857C3.71429 14.8161 3.925 15.3248 4.30007 15.6999C4.67515 16.075 5.18385 16.2857 5.71429 16.2857H11.4286C11.959 16.2857 12.4677 16.075 12.8428 15.6999C13.2179 15.3248 13.4286 14.8161 13.4286 14.2857V8.57141C13.4286 8.04098 13.2179 7.53227 12.8428 7.1572Z" fill="#1E1E1E"/>
<path fill-rule="evenodd" clip-rule="evenodd" d="M15.6999 4.30008C15.3249 3.92501 14.8162 3.71429 14.2857 3.71429H8.57143C8.041 3.71429 7.53229 3.92501 7.15722 4.30008C6.78215 4.67515 6.57143 5.18386 6.57143 5.71429V6.4706C6.57143 6.78619 6.82727 7.04203 7.14286 7.04203C7.45845 7.04203 7.71429 6.78619 7.71429 6.4706V5.71429C7.71429 5.48697 7.8046 5.26895 7.96534 5.1082C8.12609 4.94746 8.34411 4.85715 8.57143 4.85715H14.2857C14.513 4.85715 14.7311 4.94746 14.8918 5.1082C15.0526 5.26895 15.1429 5.48697 15.1429 5.71429V11.4286C15.1429 11.6559 15.0526 11.8739 14.8918 12.0347C14.7311 12.1954 14.513 12.2857 14.2857 12.2857H13.5294C13.2138 12.2857 12.958 12.5416 12.958 12.8572C12.958 13.1727 13.2138 13.4286 13.5294 13.4286H14.2857C14.8162 13.4286 15.3249 13.2179 15.6999 12.8428C16.075 12.4677 16.2857 11.959 16.2857 11.4286V5.71429C16.2857 5.18386 16.075 4.67515 15.6999 4.30008Z" fill="#1E1E1E"/>
</svg>
