<svg width="20" height="20" viewBox="0 0 20 20" fill="none" xmlns="http://www.w3.org/2000/svg">
<path fill-rule="evenodd" clip-rule="evenodd" d="M11.4287 7.71415C11.656 7.71415 11.8741 7.80445 12.0348 7.9652C12.1955 8.12594 12.2859 8.34396 12.2859 8.57129V14.2856C12.2859 14.5129 12.1955 14.7309 12.0348 14.8917C11.8741 15.0524 11.656 15.1427 11.4287 15.1427H5.71442C5.4871 15.1427 5.26908 15.0524 5.10833 14.8917C4.94759 14.7309 4.85728 14.5129 4.85728 14.2856V8.57129C4.85728 8.34396 4.94759 8.12594 5.10833 7.9652C5.26908 7.80445 5.4871 7.71415 5.71442 7.71415H11.4287ZM12.8429 7.15708C12.4679 6.782 11.9591 6.57129 11.4287 6.57129H5.71442C5.18399 6.57129 4.67528 6.782 4.30021 7.15708C3.92514 7.53215 3.71442 8.04086 3.71442 8.57129V14.2856C3.71442 14.816 3.92514 15.3247 4.30021 15.6998C4.67528 16.0749 5.18399 16.2856 5.71442 16.2856H11.4287C11.9591 16.2856 12.4679 16.0749 12.8429 15.6998C13.218 15.3247 13.4287 14.816 13.4287 14.2856V8.57129C13.4287 8.04086 13.218 7.53215 12.8429 7.15708Z" fill="#29510A"/>
<path fill-rule="evenodd" clip-rule="evenodd" d="M15.6999 4.30014C15.3248 3.92507 14.8161 3.71436 14.2856 3.71436H8.57136C8.04093 3.71436 7.53222 3.92507 7.15715 4.30014C6.78207 4.67521 6.57136 5.18392 6.57136 5.71436V6.47066C6.57136 6.78625 6.8272 7.04209 7.14279 7.04209C7.45838 7.04209 7.71422 6.78625 7.71422 6.47066V5.71436C7.71422 5.48703 7.80452 5.26901 7.96527 5.10826C8.12601 4.94752 8.34403 4.85721 8.57136 4.85721H14.2856C14.513 4.85721 14.731 4.94752 14.8917 5.10826C15.0525 5.26901 15.1428 5.48703 15.1428 5.71436V11.4286C15.1428 11.656 15.0525 11.874 14.8917 12.0347C14.731 12.1955 14.513 12.2858 14.2856 12.2858H13.5293C13.2138 12.2858 12.9579 12.5416 12.9579 12.8572C12.9579 13.1728 13.2138 13.4286 13.5293 13.4286H14.2856C14.8161 13.4286 15.3248 13.2179 15.6999 12.8429C16.0749 12.4678 16.2856 11.9591 16.2856 11.4286V5.71436C16.2856 5.18392 16.0749 4.67521 15.6999 4.30014Z" fill="#29510A"/>
</svg>
