<svg width="184" height="184" viewBox="0 0 184 184" fill="none" xmlns="http://www.w3.org/2000/svg">
<mask id="mask0_7088_1079" style="mask-type:alpha" maskUnits="userSpaceOnUse" x="0" y="0" width="184" height="184">
<circle cx="92" cy="92" r="92" fill="#EDEDED"/>
</mask>
<g mask="url(#mask0_7088_1079)">
<circle cx="92" cy="92" r="92" fill="#FAFAFA"/>
<path d="M88.8612 37.7141C88.8612 37.3292 89.2779 37.0886 89.6112 37.2811L96.3612 41.1782C96.6945 41.3707 96.6946 41.8518 96.3612 42.0442L89.6112 45.9413C89.2779 46.1338 88.8612 45.8932 88.8612 45.5083L88.8612 37.7141Z" stroke="#BFBFBF" stroke-width="3" stroke-linejoin="round"/>
<path d="M170.58 79.9805C171.565 79.4118 172.825 79.7493 173.394 80.7344C173.942 81.6844 173.648 82.8896 172.743 83.4845L172.64 83.548L163.127 89.0406C162.142 89.6094 160.882 89.2718 160.313 88.2867C159.765 87.3367 160.059 86.1315 160.964 85.5366L161.067 85.4731L170.58 79.9805Z" fill="#BFBFBF"/>
<path d="M36.0139 62.1295C36.999 61.5607 38.2587 61.8982 38.8275 62.8834C39.376 63.8333 39.0817 65.0386 38.1767 65.6334L38.0736 65.697L28.5603 71.1895C27.5751 71.7583 26.3154 71.4207 25.7466 70.4356C25.1982 69.4857 25.4925 68.2804 26.3975 67.6855L26.5006 67.622L36.0139 62.1295Z" fill="#BFBFBF"/>
<path d="M171.395 88.1926C171.964 89.1778 171.627 90.4374 170.642 91.0062C169.692 91.5547 168.486 91.2604 167.891 90.3554L167.828 90.2523L162.335 80.739C161.767 79.7538 162.104 78.4941 163.089 77.9254C164.039 77.3769 165.244 77.6712 165.839 78.5762L165.903 78.6793L171.395 88.1926Z" fill="#BFBFBF"/>
<path d="M36.8271 70.342C37.3958 71.3272 37.0583 72.5869 36.0732 73.1556C35.1232 73.7041 33.918 73.4098 33.3231 72.5048L33.2596 72.4017L27.767 62.8884C27.1983 61.9032 27.5358 60.6435 28.5209 60.0748C29.4709 59.5263 30.6761 59.8206 31.271 60.7256L31.3345 60.8287L36.8271 70.342Z" fill="#BFBFBF"/>
<circle cx="94.0599" cy="136.627" r="66.597" fill="#D9D9D9"/>
<mask id="mask1_7088_1079" style="mask-type:alpha" maskUnits="userSpaceOnUse" x="23" y="97" width="143" height="118">
<path d="M31.7531 97.4922C42.0516 111.452 69.6516 136.627 97.6635 125.641C132.678 111.91 162.201 120.835 164.261 125.641C165.908 129.486 164.947 154.248 164.261 166.149C161.514 157.452 150.529 142.668 128.559 153.104C101.096 166.149 95.6038 175.074 112.081 179.88C128.559 184.686 110.708 208.716 100.41 210.776C96.3365 211.59 90.0815 212.215 83.885 212.666C79.2497 214.817 72.5561 214.542 67.4546 213.522C71.2729 213.406 77.5483 213.127 83.885 212.666C89.6468 209.992 92.2283 203.572 84.6188 190.179C67.4546 159.97 110.022 148.298 64.7083 140.746C28.4576 134.704 22.1411 113.054 23.5143 102.985L31.7531 97.4922Z" fill="#E6E6E6"/>
</mask>
<g mask="url(#mask1_7088_1079)">
<circle cx="94.0599" cy="136.626" r="66.597" fill="#F2F2F2"/>
</g>
<path d="M101.612 134.567C95.6615 144.866 78.6804 164.502 58.3581 160.657C38.0357 156.812 32.9551 159.055 32.9551 160.657" stroke="#BFBFBF" stroke-width="2" stroke-linecap="round" stroke-dasharray="4 4"/>
<path fill-rule="evenodd" clip-rule="evenodd" d="M107.791 156.537C131.679 156.537 151.045 137.172 151.045 113.284C151.045 89.3951 131.679 70.0298 107.791 70.0298C83.9025 70.0298 64.5371 89.3951 64.5371 113.284C64.5371 137.172 83.9025 156.537 107.791 156.537ZM107.791 142.806C125.613 142.806 140.06 128.359 140.06 110.537C140.06 92.7158 125.613 78.2687 107.791 78.2687C89.9696 78.2687 75.5224 92.7158 75.5224 110.537C75.5224 128.359 89.9696 142.806 107.791 142.806Z" fill="#737373"/>
<path fill-rule="evenodd" clip-rule="evenodd" d="M111.91 155.164C135.798 155.164 155.164 135.799 155.164 111.91C155.164 88.0221 135.798 68.6567 111.91 68.6567C88.0216 68.6567 68.6562 88.0221 68.6562 111.91C68.6562 135.799 88.0216 155.164 111.91 155.164ZM111.91 144.179C129.731 144.179 144.179 129.732 144.179 111.91C144.179 94.089 129.731 79.6418 111.91 79.6418C94.0885 79.6418 79.6413 94.089 79.6413 111.91C79.6413 129.732 94.0885 144.179 111.91 144.179Z" fill="#BFBFBF"/>
<ellipse cx="162.232" cy="166.227" rx="41.194" ry="7.55224" transform="rotate(44.8493 162.232 166.227)" fill="#BFBFBF"/>
<circle opacity="0.5" cx="111.911" cy="111.91" r="32.2687" fill="#D9D9D9"/>
<path d="M102.99 97.7383C105.943 91.5359 113.611 89.0189 120.115 92.1165C126.62 95.2141 129.498 102.753 126.545 108.956C125.101 111.986 119.758 117.139 109.928 113.508C107.236 112.226 106.565 116.718 106.566 119.124" stroke="#999999" stroke-width="5" stroke-linecap="round"/>
<circle cx="106.36" cy="127.39" r="2.93284" transform="rotate(25.4647 106.36 127.39)" fill="#737373" stroke="#999999"/>
</g>
</svg>
