<svg width="48" height="48" viewBox="0 0 48 48" fill="none" xmlns="http://www.w3.org/2000/svg">
<path fill-rule="evenodd" clip-rule="evenodd" d="M24 43.2C29.0922 43.2 33.9758 41.1772 37.5765 37.5765C41.1772 33.9758 43.2001 29.0922 43.2001 24C43.2001 18.9078 41.1772 14.0242 37.5765 10.4235C33.9758 6.82285 29.0922 4.8 24 4.8C18.9079 4.8 14.0243 6.82285 10.4236 10.4235C6.8229 14.0242 4.80005 18.9078 4.80005 24C4.80005 29.0922 6.8229 33.9758 10.4236 37.5765C14.0243 41.1772 18.9079 43.2 24 43.2ZM32.8968 22.3032L25.6968 15.1032C25.2442 14.666 24.638 14.4241 24.0087 14.4296C23.3794 14.4351 22.7775 14.6875 22.3325 15.1324C21.8875 15.5774 21.6351 16.1794 21.6296 16.8086C21.6242 17.4379 21.8661 18.0442 22.3032 18.4968L25.4065 21.6H16.8C16.1635 21.6 15.5531 21.8529 15.103 22.3029C14.6529 22.753 14.4 23.3635 14.4 24C14.4 24.6365 14.6529 25.247 15.103 25.6971C15.5531 26.1471 16.1635 26.4 16.8 26.4H25.4065L22.3032 29.5032C22.074 29.7246 21.8912 29.9894 21.7654 30.2822C21.6396 30.575 21.5734 30.89 21.5706 31.2086C21.5679 31.5273 21.6286 31.8433 21.7493 32.1383C21.87 32.4332 22.0482 32.7012 22.2735 32.9265C22.4988 33.1519 22.7668 33.3301 23.0618 33.4508C23.3567 33.5714 23.6727 33.6322 23.9914 33.6294C24.3101 33.6266 24.625 33.5604 24.9178 33.4346C25.2106 33.3089 25.4755 33.126 25.6968 32.8968L32.8968 25.6968C33.3468 25.2467 33.5995 24.6364 33.5995 24C33.5995 23.3636 33.3468 22.7533 32.8968 22.3032Z" fill="#3840FF"/>
</svg>
