<svg width="157" height="24" viewBox="0 0 157 24" fill="none" xmlns="http://www.w3.org/2000/svg">
<path d="M12.785 7.45879C12.41 6.985 11.8967 6.63953 11.2452 6.42238C10.6135 6.18548 10.0114 6.06704 9.43892 6.06704C9.10332 6.06704 8.75785 6.10652 8.40251 6.18549C8.04717 6.26445 7.71157 6.39277 7.39571 6.57044C7.07986 6.72837 6.82322 6.94552 6.62581 7.22189C6.4284 7.49827 6.32969 7.83387 6.32969 8.22869C6.32969 8.86041 6.56659 9.34407 7.04037 9.67967C7.51416 10.0153 8.10639 10.3015 8.81708 10.5384C9.5475 10.7753 10.3273 11.0122 11.1564 11.2491C11.9855 11.486 12.7554 11.8216 13.4661 12.2559C14.1965 12.6902 14.7986 13.2725 15.2724 14.003C15.7462 14.7334 15.9831 15.7106 15.9831 16.9345C15.9831 18.0993 15.766 19.1159 15.3316 19.9845C14.8973 20.8531 14.3051 21.5737 13.5549 22.1462C12.8245 22.7187 11.9658 23.1431 10.9787 23.4195C10.0114 23.6959 8.98487 23.8341 7.89911 23.8341C6.53698 23.8341 5.27354 23.6268 4.10882 23.2122C2.94409 22.7976 1.85833 22.1264 0.851532 21.1986L4.13843 17.586C4.61222 18.2177 5.20445 18.7112 5.91513 19.0666C6.64555 19.4022 7.39571 19.57 8.16562 19.57C8.5407 19.57 8.91578 19.5305 9.29086 19.4515C9.68568 19.3528 10.0312 19.2146 10.3273 19.037C10.6431 18.8593 10.8899 18.6323 11.0676 18.3559C11.265 18.0795 11.3637 17.7538 11.3637 17.3787C11.3637 16.747 11.1169 16.2535 10.6234 15.8981C10.1496 15.523 9.5475 15.2072 8.81708 14.9505C8.08665 14.6939 7.29701 14.4373 6.44814 14.1806C5.59927 13.924 4.80963 13.5785 4.07921 13.1442C3.34878 12.7099 2.73681 12.1374 2.24328 11.4268C1.76949 10.7161 1.5326 9.77837 1.5326 8.61364C1.5326 7.4884 1.74975 6.50134 2.18406 5.65248C2.6381 4.80361 3.23034 4.09293 3.96076 3.52043C4.71092 2.94794 5.56966 2.52351 6.53698 2.24713C7.50429 1.95101 8.50122 1.80296 9.52776 1.80296C10.7122 1.80296 11.8572 1.97075 12.9627 2.30635C14.0682 2.64195 15.0651 3.20458 15.9535 3.99422L12.785 7.45879Z" fill="black"/>
<path d="M18.3289 16.1054C18.3289 14.9604 18.5362 13.924 18.9507 12.9962C19.3653 12.0683 19.9279 11.2787 20.6386 10.6272C21.369 9.95604 22.2179 9.44277 23.1852 9.08743C24.1723 8.73209 25.2186 8.55442 26.3241 8.55442C27.4296 8.55442 28.466 8.73209 29.4333 9.08743C30.4203 9.44277 31.2692 9.95604 31.9799 10.6272C32.7103 11.2787 33.2828 12.0683 33.6974 12.9962C34.1119 13.924 34.3192 14.9604 34.3192 16.1054C34.3192 17.2504 34.1119 18.2868 33.6974 19.2146C33.2828 20.1425 32.7103 20.942 31.9799 21.6132C31.2692 22.2646 30.4203 22.768 29.4333 23.1234C28.466 23.4787 27.4296 23.6564 26.3241 23.6564C25.2186 23.6564 24.1723 23.4787 23.1852 23.1234C22.2179 22.768 21.369 22.2646 20.6386 21.6132C19.9279 20.942 19.3653 20.1425 18.9507 19.2146C18.5362 18.2868 18.3289 17.2504 18.3289 16.1054ZM22.7707 16.1054C22.7707 17.1912 23.0766 18.0696 23.6886 18.7408C24.3203 19.412 25.1988 19.7476 26.3241 19.7476C27.4493 19.7476 28.3179 19.412 28.9299 18.7408C29.5616 18.0696 29.8775 17.1912 29.8775 16.1054C29.8775 15.0196 29.5616 14.1412 28.9299 13.47C28.3179 12.7988 27.4493 12.4632 26.3241 12.4632C25.1988 12.4632 24.3203 12.7988 23.6886 13.47C23.0766 14.1412 22.7707 15.0196 22.7707 16.1054Z" fill="black"/>
<path d="M50.7937 23.301H46.5296V21.3467H46.4704C46.3125 21.623 46.1052 21.8994 45.8486 22.1758C45.6117 22.4522 45.3156 22.6989 44.9602 22.9161C44.6049 23.1332 44.2002 23.3109 43.7461 23.4491C43.2921 23.5873 42.7986 23.6564 42.2656 23.6564C41.1403 23.6564 40.2223 23.4886 39.5117 23.153C38.8207 22.7976 38.2779 22.314 37.883 21.702C37.5079 21.09 37.2513 20.3695 37.1131 19.5404C36.9947 18.7112 36.9355 17.813 36.9355 16.8457V8.90976H41.3772V15.9573C41.3772 16.3719 41.3871 16.8062 41.4068 17.2603C41.4463 17.6946 41.5351 18.0993 41.6733 18.4743C41.8313 18.8494 42.0583 19.1554 42.3544 19.3923C42.6703 19.6292 43.1144 19.7476 43.6869 19.7476C44.2594 19.7476 44.7233 19.6489 45.0787 19.4515C45.434 19.2344 45.7005 18.958 45.8782 18.6224C46.0756 18.2671 46.2039 17.8722 46.2631 17.4379C46.3224 17.0036 46.352 16.5496 46.352 16.0758V8.90976H50.7937V23.301Z" fill="black"/>
<path d="M53.9983 0.914604H58.44V23.301H53.9983V0.914604Z" fill="black"/>
<path d="M68.7645 2.33597H73.7985L77.1446 15.7797H77.2039L81.5864 2.33597H85.8801L90.233 16.135H90.2922L93.816 2.33597H98.4947L92.3651 23.301H88.249L83.6296 8.79131H83.5704L78.951 23.301H74.983L68.7645 2.33597Z" fill="black"/>
<path d="M107.938 21.4947H107.878C107.385 22.2646 106.723 22.8174 105.894 23.153C105.085 23.4886 104.226 23.6564 103.318 23.6564C102.647 23.6564 101.995 23.5577 101.364 23.3603C100.752 23.1826 100.209 22.9062 99.7351 22.5311C99.2613 22.1561 98.8863 21.6921 98.6099 21.1394C98.3335 20.5866 98.1953 19.9451 98.1953 19.2146C98.1953 18.3855 98.3434 17.6847 98.6395 17.1122C98.9554 16.5397 99.3699 16.0659 99.8832 15.6908C100.416 15.3158 101.018 15.0295 101.69 14.8321C102.361 14.6149 103.052 14.457 103.762 14.3583C104.493 14.2596 105.213 14.2004 105.924 14.1806C106.654 14.1609 107.326 14.151 107.938 14.151C107.938 13.3614 107.651 12.7395 107.079 12.2855C106.526 11.8117 105.865 11.5748 105.095 11.5748C104.364 11.5748 103.693 11.7327 103.081 12.0486C102.489 12.3447 101.956 12.7593 101.482 13.2923L99.1133 10.8641C99.9424 10.0942 100.91 9.52174 102.015 9.14665C103.121 8.75183 104.266 8.55442 105.45 8.55442C106.753 8.55442 107.819 8.72222 108.648 9.05782C109.497 9.37368 110.168 9.84746 110.662 10.4792C111.175 11.1109 111.53 11.8907 111.728 12.8185C111.925 13.7266 112.024 14.7827 112.024 15.987V23.301H107.938V21.4947ZM106.842 16.9938C106.506 16.9938 106.082 17.0135 105.569 17.053C105.075 17.0727 104.591 17.1517 104.118 17.2899C103.664 17.4281 103.269 17.6353 102.933 17.9117C102.617 18.1881 102.459 18.573 102.459 19.0666C102.459 19.5996 102.686 19.9944 103.14 20.251C103.595 20.5077 104.068 20.636 104.562 20.636C104.996 20.636 105.411 20.5768 105.806 20.4583C106.22 20.3399 106.585 20.1721 106.901 19.9549C107.217 19.7378 107.464 19.4614 107.641 19.1258C107.839 18.7902 107.938 18.3954 107.938 17.9413V16.9938H106.842Z" fill="black"/>
<path d="M114.87 0.914604H119.312V23.301H114.87V0.914604Z" fill="black"/>
<path d="M122.562 0.914604H127.004V23.301H122.562V0.914604Z" fill="black"/>
<path d="M143.816 20.8137C143.106 21.7218 142.207 22.4226 141.122 22.9161C140.036 23.4096 138.911 23.6564 137.746 23.6564C136.64 23.6564 135.594 23.4787 134.607 23.1234C133.64 22.768 132.791 22.2646 132.06 21.6132C131.35 20.942 130.787 20.1425 130.373 19.2146C129.958 18.2868 129.751 17.2504 129.751 16.1054C129.751 14.9604 129.958 13.924 130.373 12.9962C130.787 12.0683 131.35 11.2787 132.06 10.6272C132.791 9.95604 133.64 9.44277 134.607 9.08743C135.594 8.73209 136.64 8.55442 137.746 8.55442C138.772 8.55442 139.7 8.73209 140.529 9.08743C141.378 9.44277 142.089 9.95604 142.661 10.6272C143.254 11.2787 143.708 12.0683 144.024 12.9962C144.339 13.924 144.497 14.9604 144.497 16.1054V17.4972H134.192C134.37 18.346 134.755 19.0271 135.347 19.5404C135.94 20.0339 136.67 20.2806 137.539 20.2806C138.269 20.2806 138.881 20.1227 139.375 19.8069C139.888 19.4713 140.332 19.0468 140.707 18.5336L143.816 20.8137ZM140.056 14.4768C140.075 13.7266 139.829 13.085 139.315 12.552C138.802 12.019 138.141 11.7525 137.331 11.7525C136.838 11.7525 136.403 11.8314 136.028 11.9894C135.653 12.1473 135.328 12.3546 135.051 12.6112C134.795 12.8481 134.587 13.1344 134.429 13.47C134.291 13.7858 134.212 14.1214 134.192 14.4768H140.056Z" fill="black"/>
<path d="M157 12.4632H153.091V17.2603C153.091 17.6551 153.111 18.0203 153.15 18.3559C153.19 18.6717 153.279 18.9481 153.417 19.185C153.555 19.4219 153.762 19.6095 154.039 19.7476C154.335 19.8661 154.72 19.9253 155.194 19.9253C155.431 19.9253 155.737 19.9056 156.112 19.8661C156.506 19.8069 156.803 19.6884 157 19.5107V23.2122C156.506 23.3899 155.993 23.5083 155.46 23.5675C154.927 23.6268 154.404 23.6564 153.891 23.6564C153.141 23.6564 152.45 23.5774 151.818 23.4195C151.186 23.2616 150.633 23.0148 150.16 22.6792C149.686 22.3239 149.311 21.8698 149.034 21.3171C148.778 20.7643 148.649 20.0931 148.649 19.3035V12.4632H145.807V8.90976H148.649V4.64568H153.091V8.90976H157V12.4632Z" fill="black"/>
</svg>
