<svg width="198" height="27" viewBox="0 0 198 27" fill="none" xmlns="http://www.w3.org/2000/svg">
<path d="M77.1116 23.1372C75.2293 23.1372 73.3501 22.3824 73.3501 18.621V2.06555L72.9743 1.68971H69.9645L69.5886 2.06555V18.621C69.5886 24.2647 72.9743 26.5229 77.1147 26.5229H77.8663L78.2422 26.147V23.5131L77.8663 23.1372H77.1147H77.1116Z" fill="#1B112B"/>
<path d="M143.383 23.1372C141.501 23.1372 139.622 22.3824 139.622 18.621V2.06555L139.246 1.68971H136.236L135.86 2.06555V18.621C135.86 24.2647 139.246 26.5229 143.386 26.5229H144.138L144.514 26.147V23.5131L144.138 23.1372H143.386H143.383Z" fill="#1B112B"/>
<path d="M156.121 23.1372C154.239 23.1372 152.36 22.3824 152.36 18.621V2.06555L151.984 1.68971H148.974L148.598 2.06555V18.621C148.598 24.2647 151.984 26.5229 156.124 26.5229H156.876L157.252 26.147V23.5131L156.876 23.1372H156.124H156.121Z" fill="#1B112B"/>
<path d="M132.307 23.1372C130.425 23.1372 128.545 22.3824 128.545 18.621V15.2353C128.545 9.59159 126.287 6.95763 120.644 6.95763C115 6.95763 112.742 9.59159 112.742 12.6014L113.118 12.9772H116.127L116.503 12.6014C116.503 11.0949 118.01 10.3433 120.64 10.3433C123.271 10.3433 124.781 11.0949 124.781 13.7289V14.4806L124.405 14.8564C124.405 14.8564 122.899 14.4806 120.644 14.4806C115.751 14.4806 111.99 15.987 111.99 20.5002C111.99 24.6406 114.624 26.5197 118.761 26.5197C122.899 26.5197 125.846 23.7802 125.846 23.7802H126.21C127.579 25.6842 129.803 26.5197 132.307 26.5197H132.481L132.857 26.1439V23.5099L132.481 23.1341H132.307V23.1372ZM124.781 19.3726C124.781 21.2549 122.523 23.1341 119.513 23.1341C117.255 23.1341 115.751 22.7583 115.751 20.5002C115.751 18.242 117.634 17.4904 121.019 17.4904C123.278 17.4904 124.405 17.8662 124.405 17.8662L124.781 18.242V19.3695V19.3726Z" fill="#1B112B"/>
<path d="M66.3275 23.1372C64.4452 23.1372 62.566 22.3824 62.566 18.621V7.7093L62.1933 7.33347H59.1835L58.8076 7.7093V17.1145C58.8076 21.2549 56.5495 23.1341 53.9156 23.1341C50.9058 23.1341 49.7751 20.876 49.7751 18.6179V7.7093L49.3993 7.33347H46.3895L46.0137 7.7093V18.621C46.0137 22.7614 48.2718 26.5229 53.5397 26.5229C56.9253 26.5229 59.8451 23.7833 59.8451 23.7833H60.2209V23.774C61.5938 25.6842 63.8208 26.5197 66.3275 26.5197H66.5014L66.8772 26.1439V23.51L66.5014 23.1341H66.3275V23.1372Z" fill="#1B112B"/>
<path d="M10.3153 26.5229C4.05033 26.5229 0 23.5752 0 18.0495L0.369624 17.6798H3.31419L3.68382 18.0495C3.68382 21.7333 6.26187 23.2056 10.6818 23.2056C13.996 23.2056 16.5741 22.0998 16.5741 19.1521C16.5741 15.8379 14.3625 15.1018 9.20643 14.3625C4.05033 13.6233 0.736142 11.418 0.736142 6.99801C0.736142 3.68382 3.31419 0 9.94568 0C15.4714 0 19.5217 2.21153 19.5217 7.73415L19.1521 8.10377H16.2044L15.8348 7.73415C15.8348 4.78648 14.3625 3.31419 9.57295 3.31419C6.25876 3.31419 4.41685 4.78648 4.41685 6.99801C4.41685 9.94568 6.25876 10.6818 11.4149 11.418C16.571 12.1541 20.2548 13.996 20.2548 19.1521C20.2548 23.2056 17.3071 26.5197 10.3091 26.5197L10.3153 26.5229Z" fill="#1B112B"/>
<path d="M32.6202 26.5229C27.0945 26.5229 23.4106 22.839 23.4106 16.9468C23.4106 11.0546 27.0945 7.37074 32.6202 7.37074H32.9898C38.5155 7.37074 42.1993 11.0546 42.1993 16.9468C42.1993 22.839 38.5155 26.5229 32.9898 26.5229H32.6202ZM32.9898 23.2087C36.304 23.2087 38.5155 20.9971 38.5155 16.9468C38.5155 12.8965 36.304 10.6849 32.9898 10.6849H32.6202C29.306 10.6849 27.0945 12.8965 27.0945 16.9468C27.0945 20.9971 29.306 23.2087 32.6202 23.2087H32.9898Z" fill="#1B112B"/>
<path d="M103.992 25.8457L103.622 26.2153H100.308L99.9383 25.8457L97.7299 8.53241H97.3602L95.1487 25.8457L94.7791 26.2153H91.4649L91.0953 25.8457L87.0449 3.37631V0.798259L87.4145 0.428635H89.9926L90.3622 0.798259L92.9403 18.1116H93.3099L95.5183 0.798259L95.8879 0.428635H99.2021L99.5718 0.798259L101.783 18.1116H102.153L104.731 0.798259L105.101 0.428635H107.679L108.048 0.798259V3.37631L103.995 25.8457H103.992Z" fill="#1B112B"/>
<path d="M159.703 16.9437C159.703 11.7876 162.281 7.36763 168.542 7.36763C174.804 7.36763 177.382 11.7876 177.382 16.9437V18.0495L177.013 18.4191H164.119L163.75 18.7887C163.75 19.5248 164.119 23.2087 168.906 23.2087C170.748 23.2087 172.22 22.839 172.956 20.9971L173.326 20.6275H176.274L176.643 20.9971C176.274 23.9448 173.695 26.5228 168.909 26.5228C162.647 26.5228 159.699 22.4725 159.699 16.9468L159.703 16.9437ZM173.332 15.1018C173.332 13.996 172.962 10.6818 168.542 10.6818C164.123 10.6818 163.753 13.996 163.753 15.1018L164.123 15.4714H172.962L173.332 15.1018Z" fill="#1B112B"/>
<path d="M183.38 11.418L183.01 11.0483H180.063L179.693 10.6787V8.10068L180.063 7.73105H183.01L183.38 7.36143V2.57806L183.75 2.20844H186.697L187.067 2.57806V7.36764L187.437 7.73726H193.698L194.068 8.10689V10.6849L193.698 11.0546H187.437L187.067 11.4242V18.7918C187.067 22.4756 188.909 23.2118 190.751 23.2118C192.223 23.2118 194.065 22.4756 194.065 19.8976V19.1614L194.435 18.7918H197.382L197.752 19.1614V19.8976C197.752 25.0537 193.698 26.5291 190.754 26.5291C186.7 26.5291 183.386 24.3206 183.386 18.7949V11.4273L183.38 11.418Z" fill="#1B112B"/>
</svg>
