<svg width="241" height="71" viewBox="0 0 241 71" fill="none" xmlns="http://www.w3.org/2000/svg">
<path d="M54.9806 24.5249L15.5718 24.5249L15.5718 24.5264C15.5366 24.5264 15.5019 24.5249 15.4667 24.5249C9.46265 24.5249 4.59546 29.3562 4.59546 35.3158C4.59546 41.2755 9.46265 46.1068 15.4667 46.1068C15.5019 46.1068 15.5371 46.1057 15.5718 46.1052L15.5718 46.1068L54.9806 46.1068C60.9846 46.1068 65.8518 41.2755 65.8518 35.3158C65.8518 29.3562 60.9846 24.5249 54.9806 24.5249Z" fill="url(#paint0_radial_2214_7092)"/>
<path d="M27.5024 7.70224L7.70233 27.5023C3.44845 31.7561 3.44845 38.653 7.70233 42.9069C11.9562 47.1608 18.8531 47.1608 23.107 42.9069L42.907 23.1069C47.1609 18.853 47.1609 11.9561 42.907 7.70224C38.6531 3.44836 31.7562 3.44836 27.5024 7.70224Z" fill="url(#paint1_radial_2214_7092)"/>
<path d="M47.2653 27.7076L27.4653 47.5076C23.2114 51.7615 23.2114 58.6584 27.4653 62.9123C31.7192 67.1662 38.6161 67.1662 42.8699 62.9123L62.67 43.1123C66.9238 38.8584 66.9238 31.9615 62.6699 27.7076C58.4161 23.4537 51.5192 23.4537 47.2653 27.7076Z" fill="url(#paint2_radial_2214_7092)"/>
<path d="M143.727 43.1955C142.218 43.1955 140.711 42.5905 140.711 39.5754V26.3047L140.41 26.0034H137.998L137.696 26.3047V39.5754C137.696 44.0993 140.41 45.9094 143.729 45.9094H144.332L144.633 45.6082V43.4968L144.332 43.1955H143.729H143.727Z" fill="#1E1E1E"/>
<path d="M196.849 43.1955C195.34 43.1955 193.834 42.5905 193.834 39.5754V26.3047L193.533 26.0034H191.12L190.819 26.3047V39.5754C190.819 44.0993 193.533 45.9094 196.852 45.9094H197.454L197.755 45.6082V43.4968L197.454 43.1955H196.852H196.849Z" fill="#1E1E1E"/>
<path d="M207.06 43.1955C205.551 43.1955 204.045 42.5905 204.045 39.5754V26.3047L203.743 26.0034H201.331L201.03 26.3047V39.5754C201.03 44.0993 203.743 45.9094 207.062 45.9094H207.665L207.966 45.6082V43.4968L207.665 43.1955H207.062H207.06Z" fill="#1E1E1E"/>
<path d="M187.971 43.1955C186.462 43.1955 184.955 42.5905 184.955 39.5753V36.8614C184.955 32.3374 183.145 30.2261 178.621 30.2261C174.097 30.2261 172.287 32.3374 172.287 34.7501L172.589 35.0513H175.001L175.303 34.7501C175.303 33.5425 176.51 32.94 178.619 32.94C180.728 32.94 181.938 33.5425 181.938 35.6539V36.2564L181.637 36.5577C181.637 36.5577 180.429 36.2564 178.621 36.2564C174.7 36.2564 171.685 37.4639 171.685 41.0816C171.685 44.4006 173.796 45.9069 177.113 45.9069C180.429 45.9069 182.792 43.7109 182.792 43.7109H183.083C184.181 45.2371 185.964 45.9069 187.971 45.9069H188.11L188.411 45.6056V43.4943L188.11 43.193H187.971V43.1955ZM181.938 40.1778C181.938 41.6867 180.128 43.193 177.715 43.193C175.905 43.193 174.7 42.8917 174.7 41.0816C174.7 39.2715 176.209 38.669 178.923 38.669C180.733 38.669 181.637 38.9703 181.637 38.9703L181.938 39.2715V40.1753V40.1778Z" fill="#1E1E1E"/>
<path d="M135.082 43.1955C133.573 43.1955 132.067 42.5905 132.067 39.5753V30.8286L131.768 30.5273H129.356L129.054 30.8286V38.3678C129.054 41.6867 127.244 43.193 125.133 43.193C122.72 43.193 121.814 41.3829 121.814 39.5728V30.8286L121.513 30.5273H119.1L118.799 30.8286V39.5753C118.799 42.8942 120.609 45.9094 124.832 45.9094C127.546 45.9094 129.886 43.7134 129.886 43.7134H130.187V43.7059C131.288 45.2371 133.073 45.9069 135.082 45.9069H135.222L135.523 45.6056V43.4943L135.222 43.193H135.082V43.1955Z" fill="#1E1E1E"/>
<path d="M90.1834 45.9094C85.1615 45.9094 81.9148 43.5466 81.9148 39.1172L82.2111 38.8209H84.5714L84.8677 39.1172C84.8677 42.0701 86.9342 43.2503 90.4772 43.2503C93.1339 43.2503 95.2004 42.3639 95.2004 40.0011C95.2004 37.3445 93.4277 36.7544 89.2946 36.1618C85.1615 35.5692 82.5049 33.8015 82.5049 30.2585C82.5049 27.6018 84.5714 24.6489 89.8872 24.6489C94.3165 24.6489 97.5632 26.4217 97.5632 30.8485L97.267 31.1448H94.9041L94.6078 30.8485C94.6078 28.4857 93.4277 27.3056 89.5884 27.3056C86.9318 27.3056 85.4553 28.4857 85.4553 30.2585C85.4553 32.6213 86.9318 33.2114 91.0648 33.8015C95.1979 34.3915 98.1508 35.868 98.1508 40.0011C98.1508 43.2503 95.788 45.9069 90.1785 45.9069L90.1834 45.9094Z" fill="#1E1E1E"/>
<path d="M108.063 45.9093C103.633 45.9093 100.68 42.9564 100.68 38.2332C100.68 33.51 103.633 30.5571 108.063 30.5571H108.359C112.788 30.5571 115.741 33.51 115.741 38.2332C115.741 42.9564 112.788 45.9093 108.359 45.9093H108.063ZM108.359 43.2527C111.016 43.2527 112.788 41.4799 112.788 38.2332C112.788 34.9865 111.016 33.2138 108.359 33.2138H108.063C105.406 33.2138 103.633 34.9865 103.633 38.2332C103.633 41.4799 105.406 43.2527 108.063 43.2527H108.359Z" fill="#1E1E1E"/>
<path d="M165.274 45.3668L164.977 45.6631H162.321L162.024 45.3668L160.254 31.4886H159.958L158.185 45.3668L157.889 45.6631H155.232L154.936 45.3668L151.689 27.3555V25.289L151.985 24.9927H154.052L154.348 25.289L156.415 39.1672H156.711L158.481 25.289L158.778 24.9927H161.434L161.731 25.289L163.503 39.1672H163.8L165.866 25.289L166.162 24.9927H168.229L168.525 25.289V27.3555L165.276 45.3668H165.274Z" fill="#1E1E1E"/>
<path d="M209.931 38.2308C209.931 34.0977 211.997 30.5547 217.017 30.5547C222.036 30.5547 224.103 34.0977 224.103 38.2308V39.1171L223.806 39.4134H213.471L213.175 39.7097C213.175 40.2998 213.471 43.2527 217.308 43.2527C218.784 43.2527 219.965 42.9564 220.555 41.48L220.851 41.1837H223.214L223.51 41.48C223.214 43.8428 221.147 45.9093 217.31 45.9093C212.291 45.9093 209.928 42.6626 209.928 38.2333L209.931 38.2308ZM220.856 36.7543C220.856 35.8679 220.56 33.2113 217.017 33.2113C213.474 33.2113 213.177 35.8679 213.177 36.7543L213.474 37.0506H220.56L220.856 36.7543Z" fill="#1E1E1E"/>
<path d="M228.91 33.8012L228.614 33.5049H226.251L225.955 33.2087V31.1421L226.251 30.8458H228.614L228.91 30.5495V26.7152L229.207 26.4189H231.57L231.866 26.7152V30.5545L232.162 30.8508H237.182L237.478 31.1471V33.2136L237.182 33.5099H232.162L231.866 33.8062V39.712C231.866 42.6649 233.342 43.255 234.819 43.255C235.999 43.255 237.475 42.6649 237.475 40.5984V40.0083L237.772 39.712H240.135L240.431 40.0083V40.5984C240.431 44.7315 237.182 45.9141 234.821 45.9141C231.572 45.9141 228.915 44.1439 228.915 39.7145V33.8087L228.91 33.8012Z" fill="#1E1E1E"/>
<defs>
<radialGradient id="paint0_radial_2214_7092" cx="0" cy="0" r="1" gradientUnits="userSpaceOnUse" gradientTransform="translate(56.9993 24.4603) rotate(151.938) scale(38.3611 33.1247)">
<stop stop-color="#FFD8B0"/>
<stop offset="0.359375" stop-color="#FFA3AC"/>
<stop offset="1" stop-color="#FF87CD"/>
</radialGradient>
<radialGradient id="paint1_radial_2214_7092" cx="0" cy="0" r="1" gradientUnits="userSpaceOnUse" gradientTransform="translate(35.2236 13.4401) rotate(135) scale(32.5318 37.7766)">
<stop offset="0.25" stop-color="#FF2E79"/>
<stop offset="0.869792" stop-color="#FF8BD1"/>
</radialGradient>
<radialGradient id="paint2_radial_2214_7092" cx="0" cy="0" r="1" gradientUnits="userSpaceOnUse" gradientTransform="translate(34.7067 56.0744) rotate(-47.7989) scale(41.1707 26.3312)">
<stop offset="0.130208" stop-color="#FF2B9D"/>
<stop offset="0.723958" stop-color="#FF9BBF"/>
<stop offset="0.958333" stop-color="#FAC7BD"/>
</radialGradient>
</defs>
</svg>
