<svg width="267" height="37" viewBox="0 0 267 37" fill="none" xmlns="http://www.w3.org/2000/svg">
<path d="M104.219 31.6438C101.686 31.6438 99.1582 30.6284 99.1582 25.5679V3.29494L98.6525 2.78931H94.6033L94.0977 3.29494V25.5679C94.0977 33.1607 98.6525 36.1987 104.223 36.1987H105.234L105.74 35.693V32.1494L105.234 31.6438H104.223H104.219Z" fill="#1E1E1E"/>
<path d="M193.377 31.6438C190.845 31.6438 188.317 30.6284 188.317 25.5679V3.29494L187.811 2.78931H183.762L183.256 3.29494V25.5679C183.256 33.1607 187.811 36.1987 193.382 36.1987H194.393L194.898 35.693V32.1494L194.393 31.6438H193.382H193.377Z" fill="#1E1E1E"/>
<path d="M210.515 31.6438C207.982 31.6438 205.454 30.6284 205.454 25.5679V3.29494L204.948 2.78931H200.899L200.394 3.29494V25.5679C200.394 33.1607 204.948 36.1987 210.519 36.1987H211.53L212.036 35.693V32.1494L211.53 31.6438H210.519H210.515Z" fill="#1E1E1E"/>
<path d="M178.476 31.6437C175.943 31.6437 173.415 30.6283 173.415 25.5678V21.0129C173.415 13.4201 170.377 9.87646 162.784 9.87646C155.191 9.87646 152.153 13.4201 152.153 17.4693L152.659 17.9749H156.708L157.214 17.4693C157.214 15.4426 159.241 14.4313 162.78 14.4313C166.319 14.4313 168.35 15.4426 168.35 18.9862V19.9975L167.845 20.5031C167.845 20.5031 165.818 19.9975 162.784 19.9975C156.203 19.9975 151.142 22.0242 151.142 28.096C151.142 33.6663 154.686 36.1944 160.252 36.1944C165.818 36.1944 169.784 32.5088 169.784 32.5088H170.273C172.115 35.0703 175.107 36.1944 178.476 36.1944H178.71L179.215 35.6888V32.1452L178.71 31.6396H178.476V31.6437ZM168.35 26.5791C168.35 29.1114 165.312 31.6396 161.263 31.6396C158.225 31.6396 156.203 31.1339 156.203 28.096C156.203 25.058 158.735 24.0467 163.29 24.0467C166.328 24.0467 167.845 24.5524 167.845 24.5524L168.35 25.058V26.5749V26.5791Z" fill="#1E1E1E"/>
<path d="M89.7101 31.6437C87.1778 31.6437 84.6496 30.6283 84.6496 25.5678V10.8877L84.1481 10.3821H80.0989L79.5933 10.8877V23.5411C79.5933 29.1114 76.5553 31.6396 73.0117 31.6396C68.9624 31.6396 67.4414 28.6016 67.4414 25.5636V10.8877L66.9357 10.3821H62.8865L62.3809 10.8877V25.5678C62.3809 31.1381 65.4188 36.1986 72.5061 36.1986C77.0609 36.1986 80.989 32.5129 80.989 32.5129H81.4946V32.5004C83.3416 35.0703 86.3378 36.1944 89.7101 36.1944H89.9441L90.4497 35.6888V32.1452L89.9441 31.6396H89.7101V31.6437Z" fill="#1E1E1E"/>
<path d="M14.3543 36.1987C5.9257 36.1987 0.476562 32.2331 0.476562 24.799L0.973838 24.3018H4.93533L5.4326 24.799C5.4326 29.7551 8.90099 31.7358 14.8474 31.7358C19.3062 31.7358 22.7746 30.2482 22.7746 26.2825C22.7746 21.8237 19.7993 20.8334 12.8625 19.8388C5.9257 18.8443 1.46693 15.8773 1.46693 9.93091C1.46693 5.47215 4.93533 0.516113 13.857 0.516113C21.2911 0.516113 26.7402 3.49141 26.7402 10.9213L26.2429 11.4186H22.2773L21.78 10.9213C21.78 6.95562 19.7993 4.97488 13.3556 4.97488C8.89681 4.97488 6.41879 6.95562 6.41879 9.93091C6.41879 13.8966 8.89681 14.887 15.8336 15.8773C22.7704 16.8677 27.7264 19.3457 27.7264 26.2825C27.7264 31.7358 23.7607 36.1946 14.3459 36.1946L14.3543 36.1987Z" fill="#1E1E1E"/>
<path d="M44.3623 36.1988C36.9282 36.1988 31.9722 31.2427 31.9722 23.3156C31.9722 15.3884 36.9282 10.4324 44.3623 10.4324H44.8595C52.2936 10.4324 57.2496 15.3884 57.2496 23.3156C57.2496 31.2427 52.2936 36.1988 44.8595 36.1988H44.3623ZM44.8595 31.74C49.3183 31.74 52.2936 28.7647 52.2936 23.3156C52.2936 17.8664 49.3183 14.8911 44.8595 14.8911H44.3623C39.9035 14.8911 36.9282 17.8664 36.9282 23.3156C36.9282 28.7647 39.9035 31.74 44.3623 31.74H44.8595Z" fill="#1E1E1E"/>
<path d="M140.382 35.2875L139.885 35.7848H135.426L134.929 35.2875L131.958 11.995H131.46L128.485 35.2875L127.988 35.7848H123.529L123.032 35.2875L117.583 5.0582V1.5898L118.08 1.09253H121.548L122.045 1.5898L125.514 24.8823H126.011L128.982 1.5898L129.48 1.09253H133.938L134.436 1.5898L137.411 24.8823H137.908L141.377 1.5898L141.874 1.09253H145.342L145.839 1.5898V5.0582L140.386 35.2875H140.382Z" fill="#1E1E1E"/>
<path d="M215.333 23.3112C215.333 16.3744 218.801 10.428 227.226 10.428C235.65 10.428 239.118 16.3744 239.118 23.3112V24.7988L238.621 25.2961H221.275L220.778 25.7934C220.778 26.7837 221.275 31.7398 227.715 31.7398C230.193 31.7398 232.173 31.2425 233.164 28.7645L233.661 28.2672H237.627L238.124 28.7645C237.627 32.7301 234.158 36.1985 227.719 36.1985C219.294 36.1985 215.329 30.7494 215.329 23.3153L215.333 23.3112ZM233.669 20.8331C233.669 19.3455 233.172 14.8867 227.226 14.8867C221.279 14.8867 220.782 19.3455 220.782 20.8331L221.279 21.3304H233.172L233.669 20.8331Z" fill="#1E1E1E"/>
<path d="M247.188 15.8772L246.69 15.3799H242.725L242.228 14.8826V11.4142L242.725 10.9169H246.69L247.188 10.4197V3.98434L247.685 3.48706H251.651L252.148 3.98434V10.428L252.645 10.9253H261.07L261.567 11.4226V14.891L261.07 15.3882H252.645L252.148 15.8855V25.7976C252.148 30.7536 254.626 31.744 257.104 31.744C259.085 31.744 261.563 30.7536 261.563 27.2852V26.2949L262.06 25.7976H266.026L266.523 26.2949V27.2852C266.523 34.222 261.07 36.2069 257.108 36.2069C251.655 36.2069 247.196 33.2358 247.196 25.8018V15.8897L247.188 15.8772Z" fill="#1E1E1E"/>
</svg>
