<svg width="128" height="19" viewBox="0 0 128 19" fill="none" xmlns="http://www.w3.org/2000/svg">
<path d="M6.56 18.216C5.232 18.216 4.032 18.048 2.96 17.712C1.888 17.36 0.96 16.856 0.176 16.2L0.872 14.616C1.688 15.24 2.544 15.704 3.44 16.008C4.336 16.312 5.376 16.464 6.56 16.464C8 16.464 9.064 16.2 9.752 15.672C10.456 15.128 10.808 14.416 10.808 13.536C10.808 12.832 10.552 12.272 10.04 11.856C9.544 11.44 8.704 11.112 7.52 10.872L5.024 10.368C3.52 10.048 2.392 9.528 1.64 8.808C0.904 8.072 0.536 7.096 0.536 5.88C0.536 4.872 0.792 3.992 1.304 3.24C1.832 2.488 2.56 1.904 3.488 1.488C4.416 1.072 5.488 0.863999 6.704 0.863999C7.84 0.863999 8.896 1.048 9.872 1.416C10.848 1.768 11.672 2.28 12.344 2.952L11.648 4.488C10.928 3.832 10.168 3.36 9.368 3.072C8.568 2.768 7.672 2.616 6.68 2.616C5.416 2.616 4.408 2.912 3.656 3.504C2.904 4.08 2.528 4.848 2.528 5.808C2.528 6.576 2.76 7.184 3.224 7.632C3.704 8.08 4.48 8.408 5.552 8.616L8.048 9.144C9.664 9.48 10.856 9.992 11.624 10.68C12.408 11.352 12.8 12.272 12.8 13.44C12.8 14.384 12.544 15.216 12.032 15.936C11.536 16.656 10.816 17.216 9.872 17.616C8.944 18.016 7.84 18.216 6.56 18.216ZM20.4376 18.216C19.3016 18.216 18.3176 17.968 17.4856 17.472C16.6536 16.976 16.0056 16.28 15.5416 15.384C15.0936 14.472 14.8696 13.4 14.8696 12.168C14.8696 10.936 15.0936 9.872 15.5416 8.976C16.0056 8.064 16.6536 7.36 17.4856 6.864C18.3176 6.368 19.3016 6.12 20.4376 6.12C21.5576 6.12 22.5336 6.368 23.3656 6.864C24.2136 7.36 24.8616 8.064 25.3096 8.976C25.7736 9.872 26.0056 10.936 26.0056 12.168C26.0056 13.4 25.7736 14.472 25.3096 15.384C24.8616 16.28 24.2136 16.976 23.3656 17.472C22.5336 17.968 21.5576 18.216 20.4376 18.216ZM20.4376 16.656C21.5256 16.656 22.3976 16.272 23.0536 15.504C23.7096 14.72 24.0376 13.608 24.0376 12.168C24.0376 10.712 23.7096 9.6 23.0536 8.832C22.3976 8.064 21.5256 7.68 20.4376 7.68C19.3336 7.68 18.4536 8.064 17.7976 8.832C17.1576 9.6 16.8376 10.712 16.8376 12.168C16.8376 13.608 17.1576 14.72 17.7976 15.504C18.4536 16.272 19.3336 16.656 20.4376 16.656ZM33.0536 18.216C30.2536 18.216 28.8536 16.672 28.8536 13.584V6.336H30.7976V13.56C30.7976 14.6 31.0056 15.368 31.4216 15.864C31.8536 16.36 32.5256 16.608 33.4376 16.608C34.4296 16.608 35.2376 16.28 35.8616 15.624C36.4856 14.952 36.7976 14.064 36.7976 12.96V6.336H38.7416V18H36.8456V16.032C36.4776 16.736 35.9576 17.28 35.2856 17.664C34.6296 18.032 33.8856 18.216 33.0536 18.216ZM45.9547 18.216C44.7707 18.216 43.8747 17.872 43.2667 17.184C42.6747 16.48 42.3787 15.464 42.3787 14.136V1.08H44.3227V13.992C44.3227 15.704 45.0027 16.56 46.3627 16.56C46.7627 16.56 47.1227 16.512 47.4427 16.416L47.3947 18.048C46.8987 18.16 46.4187 18.216 45.9547 18.216ZM60.4683 18L54.5403 1.08H56.6043L61.3803 15.12L66.2763 1.08H67.8603L72.7083 15.24L77.5803 1.08H79.5483L73.6203 18H71.8683L67.0443 4.08L62.1723 18H60.4683ZM84.371 18.216C83.571 18.216 82.851 18.064 82.211 17.76C81.587 17.44 81.091 17.008 80.723 16.464C80.355 15.92 80.171 15.312 80.171 14.64C80.171 13.792 80.387 13.12 80.819 12.624C81.267 12.128 81.995 11.776 83.003 11.568C84.027 11.344 85.419 11.232 87.179 11.232H87.947V10.488C87.947 9.496 87.739 8.784 87.323 8.352C86.923 7.904 86.275 7.68 85.379 7.68C84.675 7.68 83.995 7.784 83.339 7.992C82.683 8.184 82.011 8.504 81.323 8.952L80.651 7.536C81.259 7.104 81.995 6.76 82.859 6.504C83.739 6.248 84.579 6.12 85.379 6.12C86.883 6.12 87.995 6.488 88.715 7.224C89.451 7.96 89.819 9.104 89.819 10.656V18H87.995V15.984C87.691 16.672 87.219 17.216 86.579 17.616C85.955 18.016 85.219 18.216 84.371 18.216ZM84.683 16.752C85.643 16.752 86.427 16.424 87.035 15.768C87.643 15.096 87.947 14.248 87.947 13.224V12.504H87.203C85.907 12.504 84.883 12.568 84.131 12.696C83.395 12.808 82.875 13.016 82.571 13.32C82.283 13.608 82.139 14.008 82.139 14.52C82.139 15.176 82.363 15.712 82.811 16.128C83.275 16.544 83.899 16.752 84.683 16.752ZM97.0016 18.216C95.8176 18.216 94.9216 17.872 94.3136 17.184C93.7216 16.48 93.4256 15.464 93.4256 14.136V1.08H95.3696V13.992C95.3696 15.704 96.0496 16.56 97.4096 16.56C97.8096 16.56 98.1696 16.512 98.4896 16.416L98.4416 18.048C97.9456 18.16 97.4656 18.216 97.0016 18.216ZM104.103 18.216C102.919 18.216 102.023 17.872 101.415 17.184C100.823 16.48 100.527 15.464 100.527 14.136V1.08H102.471V13.992C102.471 15.704 103.151 16.56 104.511 16.56C104.911 16.56 105.271 16.512 105.591 16.416L105.543 18.048C105.047 18.16 104.567 18.216 104.103 18.216ZM112.768 18.216C110.928 18.216 109.472 17.68 108.4 16.608C107.328 15.52 106.792 14.048 106.792 12.192C106.792 10.992 107.032 9.936 107.512 9.024C107.992 8.096 108.648 7.384 109.48 6.888C110.328 6.376 111.304 6.12 112.408 6.12C113.992 6.12 115.232 6.632 116.128 7.656C117.024 8.664 117.472 10.056 117.472 11.832V12.576H108.688C108.752 13.904 109.136 14.92 109.84 15.624C110.544 16.312 111.52 16.656 112.768 16.656C113.472 16.656 114.144 16.552 114.784 16.344C115.424 16.12 116.032 15.76 116.608 15.264L117.28 16.632C116.752 17.128 116.08 17.52 115.264 17.808C114.448 18.08 113.616 18.216 112.768 18.216ZM112.456 7.56C111.352 7.56 110.48 7.904 109.84 8.592C109.2 9.28 108.824 10.184 108.712 11.304H115.792C115.744 10.12 115.432 9.2 114.856 8.544C114.296 7.888 113.496 7.56 112.456 7.56ZM124.965 18.216C123.589 18.216 122.557 17.856 121.869 17.136C121.181 16.4 120.837 15.344 120.837 13.968V7.848H118.557V6.336H120.837V2.76H122.781V6.336H126.477V7.848H122.781V13.776C122.781 14.688 122.973 15.384 123.357 15.864C123.741 16.328 124.365 16.56 125.229 16.56C125.485 16.56 125.741 16.528 125.997 16.464C126.253 16.4 126.485 16.336 126.693 16.272L127.029 17.76C126.821 17.872 126.517 17.976 126.117 18.072C125.717 18.168 125.333 18.216 124.965 18.216Z" fill="#4D3B84"/>
</svg>
