<svg width="92" height="13" viewBox="0 0 92 13" fill="none" xmlns="http://www.w3.org/2000/svg">
<path d="M35.8733 11.4411C35.0082 11.4411 34.1445 11.0943 34.1445 9.36551V1.75676L33.9718 1.58403H32.5885L32.4158 1.75676V9.36551C32.4158 11.9593 33.9718 12.9972 35.8747 12.9972H36.2201L36.3929 12.8244V11.6139L36.2201 11.4411H35.8747H35.8733Z" fill="#1B112B"/>
<path d="M66.331 11.4411C65.4659 11.4411 64.6023 11.0943 64.6023 9.36551V1.75676L64.4295 1.58403H63.0463L62.8735 1.75676V9.36551C62.8735 11.9593 64.4295 12.9972 66.3324 12.9972H66.6779L66.8506 12.8244V11.6139L66.6779 11.4411H66.3324H66.331Z" fill="#1B112B"/>
<path d="M72.1855 11.4411C71.3204 11.4411 70.4568 11.0943 70.4568 9.36551V1.75676L70.284 1.58403H68.9008L68.728 1.75676V9.36551C68.728 11.9593 70.284 12.9972 72.1869 12.9972H72.5324L72.7051 12.8244V11.6139L72.5324 11.4411H72.1869H72.1855Z" fill="#1B112B"/>
<path d="M61.2408 11.4411C60.3757 11.4411 59.5121 11.0942 59.5121 9.3655V7.80949C59.5121 5.21567 58.4743 4.00512 55.8804 4.00512C53.2866 4.00512 52.2488 5.21567 52.2488 6.59895L52.4215 6.77168H53.8048L53.9775 6.59895C53.9775 5.90659 54.6699 5.56113 55.879 5.56113C57.0881 5.56113 57.7819 5.90659 57.7819 7.11714V7.4626L57.6092 7.63533C57.6092 7.63533 56.9168 7.4626 55.8804 7.4626C53.6321 7.4626 51.9033 8.15496 51.9033 10.2292C51.9033 12.1321 53.1139 12.9957 55.0153 12.9957C56.9168 12.9957 58.2715 11.7366 58.2715 11.7366H58.4386C59.0681 12.6117 60.0902 12.9957 61.2408 12.9957H61.3208L61.4935 12.823V11.6124L61.3208 11.4397H61.2408V11.4411ZM57.7819 9.71097C57.7819 10.5761 56.7441 11.4397 55.3608 11.4397C54.323 11.4397 53.6321 11.267 53.6321 10.2292C53.6321 9.19134 54.4971 8.84588 56.0532 8.84588C57.091 8.84588 57.6092 9.01861 57.6092 9.01861L57.7819 9.19134V9.70954V9.71097Z" fill="#1B112B"/>
<path d="M30.9169 11.4411C30.0518 11.4411 29.1881 11.0943 29.1881 9.36551V4.35059L29.0168 4.17786H27.6335L27.4608 4.35059V8.67316C27.4608 10.5761 26.423 11.4397 25.2125 11.4397C23.8292 11.4397 23.3096 10.4019 23.3096 9.36408V4.35059L23.1368 4.17786H21.7535L21.5808 4.35059V9.36551C21.5808 11.2684 22.6186 12.9972 25.0397 12.9972C26.5957 12.9972 27.9376 11.7381 27.9376 11.7381H28.1103V11.7338C28.7413 12.6117 29.7649 12.9957 30.9169 12.9957H30.9968L31.1695 12.823V11.6124L30.9968 11.4397H30.9169V11.4411Z" fill="#1B112B"/>
<path d="M5.17419 12.9971C2.29485 12.9971 0.43335 11.6424 0.43335 9.10284L0.603226 8.93296H1.95653L2.1264 9.10284C2.1264 10.7959 3.31126 11.4725 5.34263 11.4725C6.86581 11.4725 8.05066 10.9643 8.05066 9.60961C8.05066 8.08644 7.03426 7.74811 4.66456 7.40836C2.29485 7.06861 0.771675 6.05506 0.771675 4.02368C0.771675 2.5005 1.95653 0.807449 5.00431 0.807449C7.54389 0.807449 9.40539 1.82385 9.40539 4.362L9.23552 4.53188H7.88079L7.71091 4.362C7.71091 3.00728 7.03426 2.33063 4.833 2.33063C3.30983 2.33063 2.4633 3.00728 2.4633 4.02368C2.4633 5.37841 3.30983 5.71673 5.67953 6.05506C8.04924 6.39338 9.74229 7.23991 9.74229 9.60961C9.74229 11.4725 8.38756 12.9957 5.17133 12.9957L5.17419 12.9971Z" fill="#1B112B"/>
<path d="M15.4253 12.9971C12.8857 12.9971 11.1926 11.3041 11.1926 8.59607C11.1926 5.88804 12.8857 4.19498 15.4253 4.19498H15.5951C18.1347 4.19498 19.8278 5.88804 19.8278 8.59607C19.8278 11.3041 18.1347 12.9971 15.5951 12.9971H15.4253ZM15.5951 11.474C17.1183 11.474 18.1347 10.4576 18.1347 8.59607C18.1347 6.73457 17.1183 5.71816 15.5951 5.71816H15.4253C13.9021 5.71816 12.8857 6.73457 12.8857 8.59607C12.8857 10.4576 13.9021 11.474 15.4253 11.474H15.5951Z" fill="#1B112B"/>
<path d="M48.2271 12.6859L48.0572 12.8558H46.534L46.3642 12.6859L45.3492 4.72888H45.1793L44.1629 12.6859L43.993 12.8558H42.4699L42.3 12.6859L40.4385 2.35918V1.17432L40.6084 1.00445H41.7932L41.9631 1.17432L43.1479 9.13139H43.3178L44.3328 1.17432L44.5027 1.00445H46.0258L46.1957 1.17432L47.2121 9.13139H47.382L48.5668 1.17432L48.7367 1.00445H49.9216L50.0915 1.17432V2.35918L48.2285 12.6859H48.2271Z" fill="#1B112B"/>
<path d="M73.8315 8.59464C73.8315 6.22494 75.0164 4.19356 77.8943 4.19356C80.7722 4.19356 81.957 6.22494 81.957 8.59464V9.10284L81.7871 9.27272H75.8615L75.6916 9.44259C75.6916 9.78092 75.8615 11.474 78.0613 11.474C78.9078 11.474 79.5845 11.3041 79.9228 10.4576L80.0927 10.2877H81.4474L81.6173 10.4576C81.4474 11.8123 80.2625 12.9971 78.0627 12.9971C75.1848 12.9971 73.8301 11.1356 73.8301 8.59607L73.8315 8.59464ZM80.0955 7.74811C80.0955 7.23991 79.9256 5.71673 77.8943 5.71673C75.8629 5.71673 75.693 7.23991 75.693 7.74811L75.8629 7.91799H79.9256L80.0955 7.74811Z" fill="#1B112B"/>
<path d="M84.7135 6.05506L84.5436 5.88518H83.1889L83.019 5.71531V4.53045L83.1889 4.36058H84.5436L84.7135 4.1907V1.9923L84.8834 1.82243H86.2381L86.408 1.9923V4.19356L86.5779 4.36343H89.4558L89.6257 4.53331V5.71816L89.4558 5.88804H86.5779L86.408 6.05791V9.44402C86.408 11.1371 87.2545 11.4754 88.1011 11.4754C88.7777 11.4754 89.6242 11.1371 89.6242 9.95222V9.6139L89.7941 9.44402H91.1488L91.3187 9.6139V9.95222C91.3187 12.3219 89.4558 13 88.1025 13C86.2396 13 84.7164 11.985 84.7164 9.44545V6.05934L84.7135 6.05506Z" fill="#1B112B"/>
</svg>
