<svg width="85" height="16" viewBox="0 0 85 16" fill="none" xmlns="http://www.w3.org/2000/svg">
<rect width="85" height="16" rx="8" fill="white"/>
<path d="M4.568 11V4.6H6.488L7.912 10.128H8.04L7.976 7.896V4.6H9.032V11H7.112L5.688 5.472H5.56L5.624 7.704V11H4.568ZM12.7216 11.144C11.9109 11.144 11.2976 10.864 10.8816 10.304C10.4709 9.73867 10.2656 8.904 10.2656 7.8C10.2656 6.696 10.4709 5.864 10.8816 5.304C11.2976 4.73867 11.9109 4.456 12.7216 4.456C13.5322 4.456 14.1429 4.73867 14.5536 5.304C14.9696 5.864 15.1776 6.696 15.1776 7.8C15.1776 8.904 14.9696 9.73867 14.5536 10.304C14.1429 10.864 13.5322 11.144 12.7216 11.144ZM12.7216 10.04C13.1482 10.04 13.4629 9.85867 13.6656 9.496C13.8736 9.128 13.9776 8.56267 13.9776 7.8C13.9776 7.03733 13.8736 6.47467 13.6656 6.112C13.4629 5.744 13.1482 5.56 12.7216 5.56C12.2949 5.56 11.9776 5.744 11.7696 6.112C11.5669 6.47467 11.4656 7.03733 11.4656 7.8C11.4656 8.56267 11.5669 9.128 11.7696 9.496C11.9776 9.85867 12.2949 10.04 12.7216 10.04ZM18.0431 11V5.736H16.2031V4.6H21.0831V5.736H19.2431V11H18.0431ZM27.9823 11L29.4943 4.6H31.4783L32.9903 11H31.7743L30.5103 5.48H30.3903L29.1263 11H27.9823ZM29.0223 9.024V7.888H31.9503V9.024H29.0223ZM36.5278 11.144C35.7438 11.144 35.1491 10.864 34.7438 10.304C34.3385 9.73867 34.1358 8.904 34.1358 7.8C34.1358 6.69067 34.3438 5.856 34.7598 5.296C35.1758 4.736 35.7891 4.456 36.5998 4.456C37.0478 4.456 37.4345 4.552 37.7598 4.744C38.0905 4.93067 38.3491 5.20533 38.5358 5.568C38.7278 5.92533 38.8371 6.36 38.8638 6.872H37.7678C37.6931 6.44 37.5571 6.11467 37.3598 5.896C37.1678 5.672 36.9145 5.56 36.5998 5.56C36.1731 5.56 35.8558 5.744 35.6478 6.112C35.4398 6.47467 35.3358 7.03733 35.3358 7.8C35.3358 8.56267 35.4318 9.128 35.6238 9.496C35.8211 9.85867 36.1225 10.04 36.5278 10.04C36.8265 10.04 37.0665 9.93867 37.2478 9.736C37.4345 9.528 37.5651 9.224 37.6398 8.824H38.7358C38.7038 9.31467 38.5945 9.73333 38.4078 10.08C38.2265 10.4267 37.9758 10.6907 37.6558 10.872C37.3411 11.0533 36.9651 11.144 36.5278 11.144ZM41.7294 11V5.736H39.8894V4.6H44.7694V5.736H42.9294V11H41.7294ZM46.0669 11V9.864H47.6509V5.736H46.0669V4.6H50.4349V5.736H48.8509V9.864H50.4349V11H46.0669ZM52.8845 4.6L54.1485 10.12H54.2685L55.5325 4.6H56.6765L55.1645 11H53.1805L51.6685 4.6H52.8845ZM57.5901 11L59.1021 4.6H61.0861L62.5981 11H61.3821L60.1181 5.48H59.9981L58.7341 11H57.5901ZM58.6301 9.024V7.888H61.5581V9.024H58.6301ZM65.4156 11V5.736H63.5756V4.6H68.4556V5.736H66.6156V11H65.4156ZM70.0892 11V4.6H74.1372V5.664H71.2892V7.288H73.7372V8.304H71.2892V9.936H74.0572V11H70.0892ZM75.6747 11V4.6H77.6187C78.5041 4.6 79.1734 4.872 79.6267 5.416C80.0854 5.95467 80.3147 6.74933 80.3147 7.8C80.3147 8.84533 80.0854 9.64 79.6267 10.184C79.1734 10.728 78.5041 11 77.6187 11H75.6747ZM76.8747 9.88H77.6187C78.1201 9.88 78.4934 9.70933 78.7387 9.368C78.9894 9.02133 79.1147 8.49867 79.1147 7.8C79.1147 7.096 78.9894 6.57333 78.7387 6.232C78.4934 5.89067 78.1201 5.72 77.6187 5.72H76.8747V9.88Z" fill="#898989"/>
</svg>
