<svg width="96" height="28" viewBox="0 0 96 28" fill="none" xmlns="http://www.w3.org/2000/svg">
<path d="M1 14H30" stroke="#EC588D" stroke-linecap="round" stroke-dasharray="0.1 6"/>
<path d="M47.9912 22.7422C52.9746 22.7422 57.0879 18.6289 57.0879 13.6543C57.0879 8.67969 52.9658 4.56641 47.9824 4.56641C43.0078 4.56641 38.9033 8.67969 38.9033 13.6543C38.9033 18.6289 43.0166 22.7422 47.9912 22.7422ZM45.917 18.1631C45.5918 17.8379 45.6094 17.3457 45.917 17.0469L49.5205 13.6631L45.917 10.2793C45.6006 9.98926 45.6094 9.47949 45.9346 9.17188C46.2246 8.89062 46.6992 8.9082 47.0156 9.19824L50.7334 12.6875C51.2959 13.2148 51.2959 14.1289 50.7334 14.6475L47.0156 18.1367C46.7344 18.4092 46.1895 18.418 45.917 18.1631Z" fill="#EC588D"/>
<path d="M66 14H95" stroke="#EC588D" stroke-linecap="round" stroke-dasharray="0.1 6"/>
</svg>
